<?xml version="1.0" encoding="UTF-8"?>
<svg version="1.1" xmlns="http://www.w3.org/2000/svg" width="180" height="180">
<path d="M0 0 C59.4 0 118.8 0 180 0 C180 59.4 180 118.8 180 180 C120.6 180 61.2 180 0 180 C0 120.6 0 61.2 0 0 Z " fill="#ECEFF0" transform="translate(0,0)"/>
<path d="M0 0 C5.24608788 0.10170122 8.92140412 2.07172893 12.875 5.4375 C14.94171204 8.53756806 15.45505497 10.38478207 15.34814453 14.08203125 C14.33523326 19.12463597 11.12600356 23.22294002 8.3125 27.4375 C6.93701824 29.56479274 5.56203299 31.69240659 4.1875 33.8203125 C3.4759375 34.90860352 2.764375 35.99689453 2.03125 37.11816406 C-1.44642183 42.47169964 -4.81362646 47.89319701 -8.1875 53.3125 C-8.79343994 54.27929688 -9.39937988 55.24609375 -10.02368164 56.2421875 C-10.89561157 57.634375 -10.89561157 57.634375 -11.78515625 59.0546875 C-12.34605957 59.94381836 -12.90696289 60.83294922 -13.48486328 61.74902344 C-14.6076222 63.58942553 -15.68235774 65.4597506 -16.71435547 67.35253906 C-17.2198291 68.2700293 -17.72530273 69.18751953 -18.24609375 70.1328125 C-18.68236084 70.96055176 -19.11862793 71.78829102 -19.56811523 72.64111328 C-21.125 74.4375 -21.125 74.4375 -23.80493164 74.70654297 C-24.5705542 74.61775879 -25.33617676 74.52897461 -26.125 74.4375 C-27.59547336 78.34813224 -27.59547336 78.34813224 -28.125 82.4375 C-27.49335937 81.94121094 -26.86171875 81.44492188 -26.2109375 80.93359375 C-15.11629907 72.50870261 -1.63545774 63.72873953 12.875 65.4375 C15.4375 66.4375 15.4375 66.4375 16.875 68.4375 C17.73265866 75.0843546 17.73265866 75.0843546 15.3671875 78.81640625 C12.08532922 82.26801582 8.40912514 84.80306379 4.5 87.5 C-1.58560002 91.7933166 -7.47624181 96.20577142 -13.125 101.0625 C-13.70556152 101.55886963 -14.28612305 102.05523926 -14.88427734 102.56665039 C-17.37567199 104.7406915 -19.27885458 106.66828187 -21.125 109.4375 C-19.99578125 108.96570313 -19.99578125 108.96570313 -18.84375 108.484375 C-11.71827382 105.61343071 -4.72004647 103.42455246 2.75585938 101.69433594 C6.09566215 101.14069401 6.09566215 101.14069401 8.875 99.4375 C11.375 99.3125 11.375 99.3125 13.875 99.4375 C14.875 100.4375 14.875 100.4375 14.9375 103.5 C14.916875 104.469375 14.89625 105.43875 14.875 106.4375 C10.08926968 108.03628449 5.30128608 109.62784441 0.50964355 111.20883179 C-2.93194193 112.34492817 -6.37243597 113.48430575 -9.8125 114.625 C-10.90307709 114.98658203 -10.90307709 114.98658203 -12.01568604 115.35546875 C-22.07807417 118.69716622 -32.09221274 122.13445612 -42.01049805 125.88745117 C-51.26228416 129.35036795 -59.99350849 131.96458551 -69.9375 131.875 C-70.74380859 131.89498047 -71.55011719 131.91496094 -72.38085938 131.93554688 C-77.76721969 131.93114266 -80.87070074 131.02522702 -85.125 127.4375 C-87.59614448 123.81315476 -88.85553421 120.33725623 -88.66015625 115.89453125 C-85.55762284 101.65005304 -74.59263989 90.76014146 -64.58520508 80.92407227 C-57.84725191 74.25958083 -51.57092886 67.58592399 -48.09765625 58.65234375 C-46.31499716 54.59303569 -43.68167243 51.04240812 -41.125 47.4375 C-50.56905167 48.73643915 -57.64493522 49.90661391 -64.125 57.4375 C-65.91820824 60.60395474 -65.91820824 60.60395474 -67.125 63.4375 C-68.79111905 63.480221 -70.45882885 63.47813832 -72.125 63.4375 C-73.125 62.4375 -73.125 62.4375 -73.4375 59.75 C-72.92096851 54.27476625 -69.88366704 50.96663589 -66 47.3125 C-57.5138518 40.49487565 -48.77641872 39.59258902 -38.125 40.4375 C-37.135 40.7675 -36.145 41.0975 -35.125 41.4375 C-34.90972656 40.7671875 -34.69445312 40.096875 -34.47265625 39.40625 C-32.68654566 35.47162958 -30.20248429 32.33854609 -27.5625 28.9375 C-22.19351846 21.9112646 -17.08768088 14.7562011 -12.125 7.4375 C-11.135 7.7675 -10.145 8.0975 -9.125 8.4375 C-10.39742652 11.09898909 -11.78100662 13.50983827 -13.48828125 15.9140625 C-13.95661377 16.57591553 -14.42494629 17.23776855 -14.9074707 17.91967773 C-15.41238037 18.62680908 -15.91729004 19.33394043 -16.4375 20.0625 C-16.9636792 20.8037915 -17.4898584 21.54508301 -18.03198242 22.30883789 C-22.5172903 28.61578534 -27.05000986 34.88848879 -31.58984375 41.15625 C-35.49091396 46.54525897 -39.34304351 51.96397751 -43.125 57.4375 C-39.1709565 56.14769176 -37.31304509 54.9080641 -34.99609375 51.46484375 C-34.44187744 50.6557959 -33.88766113 49.84674805 -33.31665039 49.01318359 C-32.73778076 48.14258301 -32.15891113 47.27198242 -31.5625 46.375 C-30.32078025 44.55306654 -29.07858439 42.73145748 -27.8359375 40.91015625 C-27.21557617 39.99250488 -26.59521484 39.07485352 -25.95605469 38.12939453 C-22.76697602 33.44102367 -19.47751244 28.82410847 -16.18676758 24.20678711 C-14.07449068 21.23470863 -12.0112862 18.26108421 -10.03515625 15.1953125 C-9.44605469 14.28523438 -8.85695313 13.37515625 -8.25 12.4375 C-7.77820313 11.674375 -7.30640625 10.91125 -6.8203125 10.125 C-4.4658992 7.78143654 -2.35887637 7.72575639 0.875 7.4375 C0.38 5.9525 0.38 5.9525 -0.125 4.4375 C-3.13347418 3.21229736 -3.13347418 3.21229736 -6.125 2.4375 C-3.78739424 0.09989424 -3.19241017 0.09454873 0 0 Z " fill="#06101B" transform="translate(126.125,25.5625)"/>
<path d="M0 0 C0.99 0.495 0.99 0.495 2 1 C1.67 1.99 1.34 2.98 1 4 C1.99 4.99 1.99 4.99 3 6 C1.97261719 6.75023438 0.94523437 7.50046875 -0.11328125 8.2734375 C-8.50451024 14.45324492 -16.46938235 20.78847632 -24 28 C-19.15241387 26.81265129 -14.36260279 25.4269464 -9.5625 24.0625 C-8.62083984 23.79759766 -7.67917969 23.53269531 -6.70898438 23.25976562 C-5.3390332 22.87014648 -5.3390332 22.87014648 -3.94140625 22.47265625 C-3.11326416 22.23812744 -2.28512207 22.00359863 -1.43188477 21.76196289 C1.06018252 21.01901757 1.06018252 21.01901757 3.63696289 19.91967773 C6.26980712 18.89499293 8.19847872 18.76653989 11 19 C12 20 12 20 12.0625 23.0625 C12.041875 24.031875 12.02125 25.00125 12 26 C7.21426968 27.59878449 2.42628608 29.19034441 -2.36535645 30.77133179 C-5.80694193 31.90742817 -9.24743597 33.04680575 -12.6875 34.1875 C-13.41455139 34.42855469 -14.14160278 34.66960937 -14.89068604 34.91796875 C-24.95307417 38.25966622 -34.96721274 41.69695612 -44.88549805 45.44995117 C-54.13728416 48.91286795 -62.86850849 51.52708551 -72.8125 51.4375 C-73.61880859 51.45748047 -74.42511719 51.47746094 -75.25585938 51.49804688 C-80.64044035 51.49364411 -83.75368064 50.59604075 -88 47 C-90.20914 43.68629 -90.22481553 42.6553979 -90.125 38.8125 C-90.10695312 37.91144531 -90.08890625 37.01039063 -90.0703125 36.08203125 C-90.04710937 35.39496094 -90.02390625 34.70789063 -90 34 C-89.01 33.505 -89.01 33.505 -88 33 C-87.34786708 30.97536745 -87.34786708 30.97536745 -87 29 C-86.34 29 -85.68 29 -85 29 C-84.34 27.35 -83.68 25.7 -83 24 C-82.01 24.99 -81.02 25.98 -80 27 C-80.33 28.03125 -80.66 29.0625 -81 30.125 C-81.94990256 33.52537585 -82.4836551 36.45319592 -82 40 C-79.16199743 42.70316535 -77.13286439 43.43147071 -73.25 43.4375 C-65.55955843 43.22130285 -58.33024961 41.15241416 -51 39 C-49.54980469 38.60167969 -49.54980469 38.60167969 -48.0703125 38.1953125 C-41.9378777 36.18937588 -38.69377974 32.92979998 -34.59375 28.04296875 C-27.03180322 19.17134745 -18.74005642 10.85985443 -9.25 4.0625 C-8.66581299 3.64355469 -8.08162598 3.22460938 -7.47973633 2.79296875 C-4.75596927 0.92478263 -3.37436993 0 0 0 Z " fill="#08101A" transform="translate(129,106)"/>
<path d="M0 0 C0 0.66 0 1.32 0 2 C-1.46191406 3.24584961 -1.46191406 3.24584961 -3.515625 4.65234375 C-4.26626221 5.17570312 -5.01689941 5.6990625 -5.7902832 6.23828125 C-7.00784302 7.07939453 -7.00784302 7.07939453 -8.25 7.9375 C-16.07173945 13.46862542 -23.1770343 19.25799236 -30 26 C-30.5559082 26.5475293 -31.11181641 27.09505859 -31.68457031 27.65917969 C-34.50202909 30.44226015 -37.30479814 33.23917287 -40.08984375 36.0546875 C-40.58500488 36.55025146 -41.08016602 37.04581543 -41.59033203 37.55639648 C-42.90778316 38.90556318 -44.16934145 40.30868327 -45.42578125 41.71484375 C-48.55438835 44.49213533 -51.26535714 45.45357253 -55.25 46.6875 C-56.25015137 46.99820435 -56.25015137 46.99820435 -57.27050781 47.31518555 C-59.17428022 47.89699652 -61.0869675 48.44940031 -63 49 C-63.8559375 49.25007813 -64.711875 49.50015625 -65.59375 49.7578125 C-72.37312383 51.50178185 -79.73469686 52.4442687 -86.25 49.5625 C-88.52378937 46.23302271 -88.46041286 44.38216743 -87.75390625 40.48046875 C-84.77411727 30.67649982 -77.11960617 23.06143946 -70 16 C-69.34 15.67 -68.68 15.34 -68 15 C-67.40481259 22.32411172 -68.723386 28.19586938 -71.125 35.1171875 C-72.19362614 38.13581585 -72.19362614 38.13581585 -72 42 C-69.66461093 42.03872687 -69.66461093 42.03872687 -67 41 C-65.83832904 39.34047006 -64.68250708 37.67611494 -63.57421875 35.98046875 C-59.85812673 31.30538525 -54.50201101 27.59953289 -48.70703125 26.2109375 C-43.74539948 24.59017264 -40.52966155 21.74896104 -36.5625 18.4375 C-30.69944034 13.70765718 -24.84288156 9.40839223 -18.25 5.75 C-17.60748291 5.39220459 -16.96496582 5.03440918 -16.30297852 4.66577148 C-10.97038988 1.80065754 -6.12000091 -0.36000005 0 0 Z " fill="#F1F3F3" transform="translate(134,99)"/>
<path d="M0 0 C4.39240697 0.4392407 6.10019196 2.28769196 9.125 5.3125 C8.795 5.6425 8.465 5.9725 8.125 6.3125 C8.785 6.6425 9.445 6.9725 10.125 7.3125 C10.125 7.9725 10.125 8.6325 10.125 9.3125 C8.5859375 10.42578125 8.5859375 10.42578125 6.5 11.625 C-1.20427513 16.06750347 -4.60991151 19.67360286 -7.4375 28 C-8.01971708 29.60682169 -8.60564138 31.21230506 -9.1953125 32.81640625 C-9.47665039 33.58742676 -9.75798828 34.35844727 -10.04785156 35.15283203 C-11.66193869 39.36718114 -13.71719337 43.35486387 -15.875 47.3125 C-14.225 46.6525 -12.575 45.9925 -10.875 45.3125 C-10.545 46.3025 -10.215 47.2925 -9.875 48.3125 C-10.865 48.6425 -11.855 48.9725 -12.875 49.3125 C-13.57894612 50.62653276 -14.23845658 51.9645257 -14.875 53.3125 C-16.1800581 55.00139872 -17.50860658 56.6728279 -18.875 58.3125 C-20.525 57.9825 -22.175 57.6525 -23.875 57.3125 C-23.34747964 53.40884932 -22.43351741 49.7649264 -21.3125 46 C-19.87695001 40.91285685 -19.61605392 36.57773702 -19.875 31.3125 C-25.18678167 36.25176711 -29.48341654 41.31247344 -33.4296875 47.40625 C-33.90664063 48.0353125 -34.38359375 48.664375 -34.875 49.3125 C-35.535 49.3125 -36.195 49.3125 -36.875 49.3125 C-37.535 48.6525 -38.195 47.9925 -38.875 47.3125 C-39.535 48.6325 -40.195 49.9525 -40.875 51.3125 C-41.535 51.3125 -42.195 51.3125 -42.875 51.3125 C-42.978125 52.55 -43.08125 53.7875 -43.1875 55.0625 C-43.61301682 58.5917866 -44.35612592 60.68410966 -46.875 63.3125 C-48.18943511 53.92367781 -43.04399866 45.84223282 -37.828125 38.38671875 C-33.39054522 32.79115739 -28.42645677 27.79788578 -23.33959961 22.80566406 C-13.65431712 13.32345773 -13.65431712 13.32345773 -7.875 1.3125 C-6.885 1.6425 -5.895 1.9725 -4.875 2.3125 C-2.875 0.3125 -2.875 0.3125 0 0 Z " fill="#0F161E" transform="translate(84.875,83.6875)"/>
<path d="M0 0 C-0.33 0.66 -0.66 1.32 -1 2 C-3.85741085 2.8013619 -6.66711443 3.49708506 -9.5625 4.125 C-10.77196289 4.39763672 -10.77196289 4.39763672 -12.00585938 4.67578125 C-14.00223825 5.12467118 -16.0009198 5.56329743 -18 6 C-14.37 5.67 -10.74 5.34 -7 5 C-7 5.66 -7 6.32 -7 7 C-5.9275 6.979375 -4.855 6.95875 -3.75 6.9375 C-0.85209576 6.9857984 1.28612141 7.13155885 4 8 C3.67 8.99 3.34 9.98 3 11 C0.89868164 11.76782227 0.89868164 11.76782227 -1.83984375 12.31640625 C-2.82017578 12.52330078 -3.80050781 12.73019531 -4.81054688 12.94335938 C-5.84244141 13.14767578 -6.87433594 13.35199219 -7.9375 13.5625 C-9.96879869 13.9738539 -11.99883157 14.39152419 -14.02734375 14.81640625 C-14.93218506 14.99631104 -15.83702637 15.17621582 -16.76928711 15.36157227 C-19.17976179 15.85626098 -19.17976179 15.85626098 -21 18 C-22.87255859 18.48657227 -22.87255859 18.48657227 -25.1484375 18.81640625 C-25.98221924 18.94039795 -26.81600098 19.06438965 -27.67504883 19.19213867 C-28.56603271 19.31435791 -29.4570166 19.43657715 -30.375 19.5625 C-31.29112061 19.69180908 -32.20724121 19.82111816 -33.15112305 19.9543457 C-35.7658784 20.31598296 -38.38209155 20.6620334 -41 21 C-42.05058594 21.13664062 -43.10117188 21.27328125 -44.18359375 21.4140625 C-51.09879209 22.13332533 -58.05370957 22.130243 -65 22.1875 C-66.01682861 22.20063232 -67.03365723 22.21376465 -68.08129883 22.22729492 C-69.04447021 22.22834229 -70.0076416 22.22938965 -71 22.23046875 C-71.86625 22.23457764 -72.7325 22.23868652 -73.625 22.24291992 C-76.17309398 21.98229559 -77.80306169 21.28313657 -80 20 C-78.50726563 19.99613281 -78.50726563 19.99613281 -76.984375 19.9921875 C-56.79376176 19.58479212 -38.41700292 11.46341056 -19.73828125 4.48828125 C-17.49260831 3.65771549 -15.24655381 2.82818018 -13 2 C-12.09169434 1.65888184 -11.18338867 1.31776367 -10.24755859 0.96630859 C-9.45816895 0.68223145 -8.6687793 0.3981543 -7.85546875 0.10546875 C-7.19571045 -0.1366333 -6.53595215 -0.37873535 -5.85620117 -0.62817383 C-3.62243919 -1.07563134 -2.14686008 -0.69456361 0 0 Z " fill="#A9B5BD" transform="translate(129,137)"/>
<path d="M0 0 C0.99 0.33 1.98 0.66 3 1 C1.72757348 3.66148909 0.34399338 6.07233827 -1.36328125 8.4765625 C-1.8317749 9.13865723 -2.30026855 9.80075195 -2.78295898 10.48291016 C-3.28770752 11.1897998 -3.79245605 11.89668945 -4.3125 12.625 C-4.837229 13.36411621 -5.36195801 14.10323242 -5.90258789 14.86474609 C-10.92726388 21.92914203 -16.00316381 28.95673502 -21.08984375 35.9765625 C-23.74318049 39.63931125 -26.37528253 43.31669482 -29 47 C-30.04449911 43.86650268 -29.93423645 43.01031744 -29 40 C-38.44405167 41.29893915 -45.51993522 42.46911391 -52 50 C-53.79320824 53.16645474 -53.79320824 53.16645474 -55 56 C-56.66611905 56.042721 -58.33382885 56.04063832 -60 56 C-61 55 -61 55 -61.3125 52.3125 C-60.79596851 46.83726625 -57.75866704 43.52913589 -53.875 39.875 C-45.3888518 33.05737565 -36.65141872 32.15508902 -26 33 C-25.01 33.33 -24.02 33.66 -23 34 C-22.78472656 33.3296875 -22.56945312 32.659375 -22.34765625 31.96875 C-20.56154566 28.03412958 -18.07748429 24.90104609 -15.4375 21.5 C-10.06851846 14.4737646 -4.96268088 7.3187011 0 0 Z " fill="#090F18" transform="translate(114,33)"/>
<path d="M0 0 C-0.66 0.66 -1.32 1.32 -2 2 C-3.2065625 1.9690625 -3.2065625 1.9690625 -4.4375 1.9375 C-7.05057397 1.70000217 -7.05057397 1.70000217 -8.4375 3.5 C-10 5 -10 5 -13 5.125 C-14.485 5.063125 -14.485 5.063125 -16 5 C-16.99 5.33 -17.98 5.66 -19 6 C-19 6.66 -19 7.32 -19 8 C-19.66 8.33 -20.32 8.66 -21 9 C-15.06 8.67 -9.12 8.34 -3 8 C-4 10 -4 10 -6.30078125 10.78125 C-12.70689258 12.31007553 -19.08662599 13.59563696 -25.6015625 14.5703125 C-28.00360714 14.88410489 -28.00360714 14.88410489 -30 16 C-28.02 16.66 -26.04 17.32 -24 18 C-24 18.99 -24 19.98 -24 21 C-25.98 21.33 -27.96 21.66 -30 22 C-29.67 21.01 -29.34 20.02 -29 19 C-32.63 18.67 -36.26 18.34 -40 18 C-40 17.34 -40 16.68 -40 16 C-40.845625 16.33 -41.69125 16.66 -42.5625 17 C-46.20989216 18.06105954 -49.22274664 18.15109013 -53 18 C-49.60170167 14.60170167 -44.70048062 14.64252633 -40.08984375 13.78125 C-38.56037109 13.39453125 -38.56037109 13.39453125 -37 13 C-36.67 12.34 -36.34 11.68 -36 11 C-35.01 11 -34.02 11 -33 11 C-33 10.34 -33 9.68 -33 9 C-29.37 8.01 -25.74 7.02 -22 6 C-21.67 4.35 -21.34 2.7 -21 1 C-18.4385681 0.6358011 -15.87641581 0.28337202 -13.3125 -0.0625 C-12.59126953 -0.16626953 -11.87003906 -0.27003906 -11.12695312 -0.37695312 C-7.15920043 -0.9023633 -3.92114889 -1.10596507 0 0 Z " fill="#C5CED4" transform="translate(162,126)"/>
<path d="M0 0 C3.71888239 0.50712033 6.73454239 1.11608215 10 3 C10 3.66 10 4.32 10 5 C8.4609375 6.11328125 8.4609375 6.11328125 6.375 7.3125 C-1.34760592 11.76557353 -4.70499409 15.33454899 -7.5 23.6875 C-9.99519833 30.63585132 -12.80074743 36.87801274 -17 43 C-18.65713444 39.68573111 -17.00962217 36.31975387 -16.125 32.875 C-15.00777378 28.4831452 -13.977644 24.25453906 -13.6015625 19.73046875 C-12.94169561 15.63843706 -12.14180319 14.30212459 -9.25 11.4375 C-5.746482 7.80795618 -2.83700429 4.16685004 0 0 Z " fill="#E9EBEC" transform="translate(85,88)"/>
<path d="M0 0 C0 0.66 0 1.32 0 2 C0.6290625 1.84402344 1.258125 1.68804687 1.90625 1.52734375 C7.68856288 0.21239007 12.16754686 -0.08008392 18 1 C18 1.66 18 2.32 18 3 C7.94712232 5.82137984 -1.83540774 7.64186689 -12.234375 8.60546875 C-15.71532715 8.86635724 -15.71532715 8.86635724 -17.8828125 9.51855469 C-20.51586358 10.11730662 -22.94073204 10.11201738 -25.640625 10.09765625 C-26.71054688 10.09443359 -27.78046875 10.09121094 -28.8828125 10.08789062 C-29.99398437 10.07951172 -31.10515625 10.07113281 -32.25 10.0625 C-33.93996094 10.05573242 -33.93996094 10.05573242 -35.6640625 10.04882812 C-38.44276217 10.03705397 -41.22135409 10.0206084 -44 10 C-44 9.67 -44 9.34 -44 9 C-42.50726563 8.99613281 -42.50726563 8.99613281 -40.984375 8.9921875 C-28.00797985 8.71699735 -16.07163114 5.65985119 -4.046875 0.80859375 C-2 0 -2 0 0 0 Z " fill="#505E6C" transform="translate(93,148)"/>
<path d="M0 0 C0.495 1.485 0.495 1.485 1 3 C0.14233398 4.67553711 0.14233398 4.67553711 -1.25390625 6.52734375 C-1.77218994 7.22770752 -2.29047363 7.92807129 -2.82446289 8.6496582 C-3.39801514 9.404646 -3.97156738 10.15963379 -4.5625 10.9375 C-5.76200866 12.55350703 -6.95986424 14.17074211 -8.15625 15.7890625 C-8.7853125 16.63629883 -9.414375 17.48353516 -10.0625 18.35644531 C-13.91964947 23.61919916 -17.6124953 28.99816306 -21.32836914 34.36108398 C-22.87386693 36.58261038 -24.43388662 38.79298318 -26 41 C-26.71027344 42.01449219 -27.42054687 43.02898437 -28.15234375 44.07421875 C-28.76207031 44.70972656 -29.37179688 45.34523437 -30 46 C-31.32 46 -32.64 46 -34 46 C-32.72757348 43.33851091 -31.34399338 40.92766173 -29.63671875 38.5234375 C-29.1682251 37.86118164 -28.69973145 37.19892578 -28.21704102 36.51660156 C-27.71229248 35.80987305 -27.20754395 35.10314453 -26.6875 34.375 C-26.162771 33.63733398 -25.63804199 32.89966797 -25.09741211 32.13964844 C-23.97949801 30.57024044 -22.86006949 29.00191028 -21.73925781 27.43457031 C-19.98466074 24.97852848 -18.23830539 22.51676236 -16.4921875 20.0546875 C-15.34945335 18.45277177 -14.20623751 16.85119951 -13.0625 15.25 C-12.53164795 14.50024902 -12.0007959 13.75049805 -11.45385742 12.97802734 C-8.57069738 8.96266954 -5.61918806 5.39888966 -2 2 C-1.34 1.34 -0.68 0.68 0 0 Z " fill="#E3E6E7" transform="translate(117,37)"/>
<path d="M0 0 C0.99 0.33 1.98 0.66 3 1 C1.72757348 3.66148909 0.34399338 6.07233827 -1.36328125 8.4765625 C-2.06638428 9.47055054 -2.06638428 9.47055054 -2.78369141 10.48461914 C-3.28819824 11.19094482 -3.79270508 11.89727051 -4.3125 12.625 C-5.09633057 13.72606079 -5.09633057 13.72606079 -5.89599609 14.84936523 C-7.01187159 16.41499844 -8.12910125 17.97966721 -9.24755859 19.54345703 C-11.04503876 22.06313457 -12.82961334 24.59162459 -14.61328125 27.12109375 C-15.78340257 28.76855001 -16.95396364 30.41569404 -18.125 32.0625 C-18.68098877 32.85414551 -19.23697754 33.64579102 -19.80981445 34.46142578 C-20.32890381 35.18700684 -20.84799316 35.91258789 -21.3828125 36.66015625 C-21.84059082 37.30605713 -22.29836914 37.95195801 -22.77001953 38.61743164 C-23.17591309 39.0736792 -23.58180664 39.52992676 -24 40 C-24.66 40 -25.32 40 -26 40 C-26 38.35 -26 36.7 -26 35 C-29.96 35 -33.92 35 -38 35 C-38 34.67 -38 34.34 -38 34 C-36.06325815 33.80482446 -34.12555991 33.61912127 -32.1875 33.4375 C-31.10855469 33.33308594 -30.02960938 33.22867188 -28.91796875 33.12109375 C-26 33 -26 33 -23 34 C-22.67708984 32.99453125 -22.67708984 32.99453125 -22.34765625 31.96875 C-20.56154566 28.03412958 -18.07748429 24.90104609 -15.4375 21.5 C-10.06851846 14.4737646 -4.96268088 7.3187011 0 0 Z " fill="#1A1D21" transform="translate(114,33)"/>
<path d="M0 0 C-0.66 0.4125 -1.32 0.825 -2 1.25 C-2.66 1.8275 -3.32 2.405 -4 3 C-4 4.32 -4 5.64 -4 7 C-4 7.33 -4 7.66 -4 8 C-6.0829243 8.64715133 -8.16635539 9.29267166 -10.25 9.9375 C-11.41015625 10.29714844 -12.5703125 10.65679687 -13.765625 11.02734375 C-21.13311148 13.24292845 -21.13311148 13.24292845 -25 12 C-23.58986988 8.59218555 -22.03419698 7.05254501 -19 5 C-18.401875 4.484375 -17.80375 3.96875 -17.1875 3.4375 C-11.79852568 -0.10382598 -6.21053562 -0.21791353 0 0 Z " fill="#080E17" transform="translate(138,91)"/>
<path d="M0 0 C-4.58121961 3.3677138 -9.07525684 3.90354521 -14.5625 4.625 C-15.46508545 4.74979736 -16.3676709 4.87459473 -17.29760742 5.00317383 C-19.86339789 5.35048778 -22.43078823 5.67911549 -25 6 C-26.04671875 6.13535156 -27.0934375 6.27070313 -28.171875 6.41015625 C-38.71054935 7.51702885 -49.41761336 7.08742439 -60 7 C-60 6.67 -60 6.34 -60 6 C-58.06060547 5.92652344 -58.06060547 5.92652344 -56.08203125 5.8515625 C-46.255972 5.44340603 -36.69168789 4.76095655 -27 3 C-24.9586122 2.66496307 -22.9169456 2.33162032 -20.875 2 C-17.88805805 1.50481732 -14.91535779 0.98322309 -11.9453125 0.39453125 C-10.97335938 0.20246094 -10.00140625 0.01039063 -9 -0.1875 C-8.13375 -0.36667969 -7.2675 -0.54585937 -6.375 -0.73046875 C-3.93746432 -1.00709698 -2.31485237 -0.75554209 0 0 Z " fill="#B6C1C9" transform="translate(113,152)"/>
<path d="M0 0 C0.33 0.99 0.66 1.98 1 3 C-2.63423209 5.32590854 -5.77088331 5.16265833 -10 5 C-10 4.34 -10 3.68 -10 3 C-16.07593562 2.88748267 -21.96445452 3.30739642 -28 4 C-27 1 -27 1 -24.79296875 -0.17578125 C-16.9812683 -2.48105229 -7.97654052 -0.98824396 0 0 Z " fill="#8394A1" transform="translate(121,146)"/>
<path d="M0 0 C0 0.66 0 1.32 0 2 C0.6290625 1.84402344 1.258125 1.68804687 1.90625 1.52734375 C7.68856288 0.21239007 12.16754686 -0.08008392 18 1 C18 1.66 18 2.32 18 3 C15.41932437 3.69918305 12.83627153 4.38461049 10.25 5.0625 C9.52039063 5.26166016 8.79078125 5.46082031 8.0390625 5.66601562 C1.58402916 7.33845608 -1.8267009 6.10453378 -8 4 C-5.57415142 1.34311822 -3.76063134 0 0 0 Z " fill="#5F707F" transform="translate(93,148)"/>
<path d="M0 0 C1.58203125 1.11328125 1.58203125 1.11328125 3 3 C2.63671875 5.91796875 2.63671875 5.91796875 1.6875 9.1875 C1.38199219 10.27417969 1.07648437 11.36085937 0.76171875 12.48046875 C0.51035156 13.31191406 0.25898437 14.14335937 0 15 C-0.66 14.01 -1.32 13.02 -2 12 C-3.20628008 14.33214148 -4.1654738 16.49642139 -5 19 C-5.33 19.99 -5.66 20.98 -6 22 C-7.26237731 19.47524538 -7.09856404 17.68799534 -7.0625 14.875 C-7.05347656 13.96492187 -7.04445312 13.05484375 -7.03515625 12.1171875 C-7.02355469 11.41851562 -7.01195312 10.71984375 -7 10 C-6.34 9.67 -5.68 9.34 -5 9 C-4.34786708 6.97536745 -4.34786708 6.97536745 -4 5 C-3.34 5 -2.68 5 -2 5 C-1.34 3.35 -0.68 1.7 0 0 Z " fill="#020811" transform="translate(46,130)"/>
<path d="M0 0 C2.31 0 4.62 0 7 0 C7 4 7 4 6 6 C5.34 6 4.68 6 4 6 C3.34 5.34 2.68 4.68 2 4 C1.34 5.32 0.68 6.64 0 8 C-0.66 8 -1.32 8 -2 8 C-2.103125 9.2375 -2.20625 10.475 -2.3125 11.75 C-2.73801682 15.2792866 -3.48112592 17.37160966 -6 20 C-6.91144418 12.10081715 -3.80499489 6.79463373 0 0 Z " fill="#0D131B" transform="translate(44,127)"/>
<path d="M0 0 C2.97 0.495 2.97 0.495 6 1 C6 1.33 6 1.66 6 2 C2.7 2.66 -0.6 3.32 -4 4 C-4 4.66 -4 5.32 -4 6 C-1.69 6 0.62 6 3 6 C3 6.33 3 6.66 3 7 C-2.94 7.33 -8.88 7.66 -15 8 C-14.34 6.02 -13.68 4.04 -13 2 C-8.71 2 -4.42 2 0 2 C0 1.34 0 0.68 0 0 Z " fill="#0F1822" transform="translate(62,149)"/>
<path d="M0 0 C-0.15963009 6.38520354 -3.78124883 9.66008365 -8 14 C-8.28875 13.38125 -8.5775 12.7625 -8.875 12.125 C-9.93720042 9.86674235 -9.93720042 9.86674235 -12 8 C-11.195625 7.4121875 -11.195625 7.4121875 -10.375 6.8125 C-8.47612374 5.36335759 -6.68140509 3.87096714 -4.875 2.3125 C-2 0 -2 0 0 0 Z " fill="#0E141D" transform="translate(82,89)"/>
<path d="M0 0 C-0.94773135 2.35247508 -1.51602833 3.71608172 -3.73999023 5.02075195 C-4.76394897 5.37592896 -4.76394897 5.37592896 -5.80859375 5.73828125 C-6.92911133 6.13176758 -6.92911133 6.13176758 -8.07226562 6.53320312 C-8.85279297 6.79037109 -9.63332031 7.04753906 -10.4375 7.3125 C-11.21416016 7.58900391 -11.99082031 7.86550781 -12.79101562 8.15039062 C-18.59493583 10.13502139 -18.59493583 10.13502139 -22 9 C-21.34 9 -20.68 9 -20 9 C-20 8.34 -20 7.68 -20 7 C-15.740581 4.7144581 -11.65521189 3.26960324 -7 2 C-6.071875 1.62875 -5.14375 1.2575 -4.1875 0.875 C-2 0 -2 0 0 0 Z " fill="#D1D4D7" transform="translate(90,138)"/>
<path d="M0 0 C-0.66 0.66 -1.32 1.32 -2 2 C-3.2065625 1.9690625 -3.2065625 1.9690625 -4.4375 1.9375 C-5.283125 1.958125 -6.12875 1.97875 -7 2 C-7.45375 2.495 -7.9075 2.99 -8.375 3.5 C-10.95406187 5.8806725 -13.62404118 5.12056996 -17 5 C-17.99 5.33 -18.98 5.66 -20 6 C-20 4.68 -20 3.36 -20 2 C-19.33613281 1.86722656 -18.67226562 1.73445313 -17.98828125 1.59765625 C-16.66376953 1.33275391 -16.66376953 1.33275391 -15.3125 1.0625 C-12.65625 0.53125 -12.65625 0.53125 -10 0 C-9.1234375 -0.1959375 -8.246875 -0.391875 -7.34375 -0.59375 C-4.63348049 -1.06353005 -2.64528347 -0.68021575 0 0 Z " fill="#D5DADE" transform="translate(162,126)"/>
<path d="M0 0 C0.99 0.33 1.98 0.66 3 1 C1.45158425 4.34708051 -0.49105864 7.24667512 -2.625 10.25 C-3.25664063 11.14203125 -3.88828125 12.0340625 -4.5390625 12.953125 C-5.02117187 13.62859375 -5.50328125 14.3040625 -6 15 C-6.66 14.67 -7.32 14.34 -8 14 C-7.37606349 10.23880524 -5.65226285 7.81039958 -3.4375 4.75 C-2.79683594 3.85796875 -2.15617187 2.9659375 -1.49609375 2.046875 C-0.75552734 1.03367188 -0.75552734 1.03367188 0 0 Z " fill="#26272A" transform="translate(114,33)"/>
<path d="M0 0 C-6.42932907 4.28621938 -15.34336868 5.53418358 -23 5 C-22 3 -22 3 -20.29760742 2.38989258 C-17.92929739 1.85472151 -15.56152375 1.32187613 -13.1875 0.8125 C-11.95676758 0.52729492 -11.95676758 0.52729492 -10.70117188 0.23632812 C-9.90646484 0.06166016 -9.11175781 -0.11300781 -8.29296875 -0.29296875 C-7.5661792 -0.4530542 -6.83938965 -0.61313965 -6.09057617 -0.77807617 C-3.80335782 -1.02087443 -2.1806664 -0.68528203 0 0 Z " fill="#D0D8DE" transform="translate(132,149)"/>
<path d="M0 0 C1.03930664 0.15662109 1.03930664 0.15662109 2.09960938 0.31640625 C3.79742614 0.57400604 5.49276109 0.84787288 7.1875 1.125 C7.1875 1.455 7.1875 1.785 7.1875 2.125 C6.33285156 2.17398438 5.47820313 2.22296875 4.59765625 2.2734375 C3.49292969 2.34820312 2.38820313 2.42296875 1.25 2.5 C0.14785156 2.56960937 -0.95429687 2.63921875 -2.08984375 2.7109375 C-2.98832031 2.84757813 -3.88679688 2.98421875 -4.8125 3.125 C-5.1425 3.785 -5.4725 4.445 -5.8125 5.125 C-8.7825 4.63 -8.7825 4.63 -11.8125 4.125 C-12.1425 3.135 -12.4725 2.145 -12.8125 1.125 C-8.37538099 -1.20125657 -4.77463185 -0.79501047 0 0 Z " fill="#050B13" transform="translate(54.8125,148.875)"/>
<path d="M0 0 C-0.33 0.66 -0.66 1.32 -1 2 C-3.7761576 2.83491243 -6.49175748 3.54547397 -9.3125 4.1875 C-10.47168945 4.47270508 -10.47168945 4.47270508 -11.65429688 4.76367188 C-12.77868164 5.02567383 -12.77868164 5.02567383 -13.92578125 5.29296875 C-14.95312378 5.53309692 -14.95312378 5.53309692 -16.0012207 5.77807617 C-18.24642185 6.02736014 -19.85695657 5.66818349 -22 5 C-19.08919272 3.96189556 -16.17062342 2.94762359 -13.25 1.9375 C-12.425 1.64294922 -11.6 1.34839844 -10.75 1.04492188 C-9.95078125 0.77099609 -9.1515625 0.49707031 -8.328125 0.21484375 C-7.5949707 -0.04176025 -6.86181641 -0.29836426 -6.10644531 -0.56274414 C-3.72635182 -1.05680388 -2.28425328 -0.76066537 0 0 Z " fill="#949DA5" transform="translate(129,137)"/>
<path d="M0 0 C0.33 0 0.66 0 1 0 C1.66268329 7.12384541 -0.74611936 13.30879185 -3 20 C-4.93703061 14.18890818 -4.21715636 7.93363723 -3 2 C-2.34 3.32 -1.68 4.64 -1 6 C-0.67 4.02 -0.34 2.04 0 0 Z " fill="#08080D" transform="translate(70,111)"/>
<path d="M0 0 C1.45599609 0.14888672 1.45599609 0.14888672 2.94140625 0.30078125 C5.4375 0.6875 5.4375 0.6875 7.4375 1.6875 C7.4375 2.6775 7.4375 3.6675 7.4375 4.6875 C5.4575 5.0175 3.4775 5.3475 1.4375 5.6875 C1.7675 4.6975 2.0975 3.7075 2.4375 2.6875 C-1.1925 2.3575 -4.8225 2.0275 -8.5625 1.6875 C-5.04997192 -0.65418539 -4.06772085 -0.44956169 0 0 Z " fill="#D0D6DA" transform="translate(130.5625,142.3125)"/>
<path d="M0 0 C0.33 0 0.66 0 1 0 C1.33 2.31 1.66 4.62 2 7 C-0.41698499 8.94918144 -2.18746401 10.00815254 -5.3359375 9.9765625 C-7.57364473 9.71537901 -9.78327805 9.40084514 -12 9 C-8.31265242 6.54176828 -5.30300029 5.98757384 -1 5 C-0.67 3.35 -0.34 1.7 0 0 Z M2 4 C4 5 4 5 4 5 Z " fill="#9BA4AB" transform="translate(141,127)"/>
<path d="M0 0 C4.95 0.33 9.9 0.66 15 1 C15.33 1.99 15.66 2.98 16 4 C13.64561267 5.42944945 12.51967567 6.08661261 9.75 5.625 C9.1725 5.41875 8.595 5.2125 8 5 C8.66 4.67 9.32 4.34 10 4 C10 3.34 10 2.68 10 2 C6.37 2 2.74 2 -1 2 C-0.67 1.34 -0.34 0.68 0 0 Z " fill="#99A8B2" transform="translate(106,145)"/>
<path d="M0 0 C-1 2 -1 2 -3.58203125 2.88671875 C-4.64808594 3.15097656 -5.71414062 3.41523438 -6.8125 3.6875 C-8.39998047 4.09548828 -8.39998047 4.09548828 -10.01953125 4.51171875 C-12.83268294 4.97258895 -14.35965663 4.9525694 -17 4 C-11.06561592 0.92291196 -6.70126536 -0.48736475 0 0 Z " fill="#D3D8DC" transform="translate(159,134)"/>
<path d="M0 0 C0 0.99 0 1.98 0 3 C-1.76641683 3.6987693 -3.53832664 4.38366583 -5.3125 5.0625 C-6.79169922 5.63677734 -6.79169922 5.63677734 -8.30078125 6.22265625 C-11 7 -11 7 -14 6 C-11.70860372 3.36968337 -9.7516301 2.34441201 -6.4375 1.3125 C-5.65246094 1.06113281 -4.86742188 0.80976563 -4.05859375 0.55078125 C-2 0 -2 0 0 0 Z " fill="#22272D" transform="translate(120,130)"/>
<path d="M0 0 C0 0.66 0 1.32 0 2 C-2.97 2.66 -5.94 3.32 -9 4 C-9.33 3.34 -9.66 2.68 -10 2 C-10.99 1.34 -11.98 0.68 -13 0 C-8.38926889 -1.29676812 -4.66159911 -0.71109139 0 0 Z " fill="#6D7E8D" transform="translate(111,149)"/>
<path d="M0 0 C0.66 0.66 1.32 1.32 2 2 C-0.92480409 7.94019945 -3.59989278 12.10689944 -9 16 C-8.37695259 11.92546771 -6.23467379 9.10460299 -3.9375 5.75 C-3.20402344 4.67234375 -2.47054687 3.5946875 -1.71484375 2.484375 C-1.14894531 1.66453125 -0.58304688 0.8446875 0 0 Z " fill="#181D23" transform="translate(101,62)"/>
<path d="M0 0 C3.0390625 0.2421875 3.0390625 0.2421875 6.625 0.875 C8.40777344 1.18050781 8.40777344 1.18050781 10.2265625 1.4921875 C11.14179688 1.65976563 12.05703125 1.82734375 13 2 C12.67 2.99 12.34 3.98 12 5 C10.02 5.33 8.04 5.66 6 6 C6.33 5.01 6.66 4.02 7 3 C4.03 2.67 1.06 2.34 -2 2 C-1.34 1.34 -0.68 0.68 0 0 Z " fill="#BCC6CB" transform="translate(120,143)"/>
<path d="M0 0 C0.99 0.99 1.98 1.98 3 3 C2.34 5.31 1.68 7.62 1 10 C-1.5 8.625 -1.5 8.625 -4 7 C-4 6.34 -4 5.68 -4 5 C-3.34 5 -2.68 5 -2 5 C-1.34 3.35 -0.68 1.7 0 0 Z " fill="#09101A" transform="translate(46,130)"/>
<path d="M0 0 C0.99 0.33 1.98 0.66 3 1 C2.67 2.65 2.34 4.3 2 6 C3.98 5.67 5.96 5.34 8 5 C5.04929881 6.96713413 3.46418389 7.65358161 0 8 C-0.99 7.34 -1.98 6.68 -3 6 C-2.625 3.5625 -2.625 3.5625 -2 1 C-1.34 0.67 -0.68 0.34 0 0 Z " fill="#050B13" transform="translate(68,68)"/>
<path d="M0 0 C0.99 0.99 1.98 1.98 3 3 C0.3401439 6.44216672 -2.90288286 6.99504674 -7 8 C-7 7.01 -7 6.02 -7 5 C-5.02 4.67 -3.04 4.34 -1 4 C-0.67 2.68 -0.34 1.36 0 0 Z M3 0 C3.99 0.495 3.99 0.495 5 1 C4.01 1.495 4.01 1.495 3 2 C3 1.34 3 0.68 3 0 Z " fill="#151C23" transform="translate(128,29)"/>
<path d="M0 0 C-3.07692746 2.6815279 -5.19734663 3.42087807 -9.25 3.6875 C-10.14203125 3.75324219 -11.0340625 3.81898438 -11.953125 3.88671875 C-12.62859375 3.92410156 -13.3040625 3.96148437 -14 4 C-10.36524602 -0.02142994 -5.27556445 -2.11022578 0 0 Z " fill="#E3E6E9" transform="translate(143,147)"/>
<path d="M0 0 C0.66 0.33 1.32 0.66 2 1 C1.74279326 2.58560393 1.46861201 4.16845924 1.1875 5.75 C1.03667969 6.63171875 0.88585938 7.5134375 0.73046875 8.421875 C-0.05414248 11.1910911 -1.14595359 12.8259401 -3 15 C-3.3152595 9.01006953 -2.68219822 5.36439644 0 0 Z " fill="#2B2F36" transform="translate(41,132)"/>
<path d="M0 0 C0.33 0.66 0.66 1.32 1 2 C-0.14453125 4.3828125 -0.14453125 4.3828125 -1.8125 7.125 C-2.35519531 8.03507812 -2.89789063 8.94515625 -3.45703125 9.8828125 C-3.96621094 10.58148438 -4.47539063 11.28015625 -5 12 C-5.66 12 -6.32 12 -7 12 C-2.98181818 1.49090909 -2.98181818 1.49090909 0 0 Z " fill="#131821" transform="translate(76,118)"/>
<path d="M0 0 C-1.05098766 2.86632997 -1.66862954 3.83006643 -4.4375 5.25 C-7 6 -7 6 -10 6 C-9.67 5.01 -9.34 4.02 -9 3 C-2.88888889 0 -2.88888889 0 0 0 Z " fill="#C5CACE" transform="translate(90,138)"/>
<path d="M0 0 C-0.99 0.66 -1.98 1.32 -3 2 C-3.33 2.66 -3.66 3.32 -4 4 C-7.3 3.67 -10.6 3.34 -14 3 C-4.52173913 -1.73913043 -4.52173913 -1.73913043 0 0 Z " fill="#E0E5E9" transform="translate(142,140)"/>
<path d="M0 0 C0.33 0.66 0.66 1.32 1 2 C1.66 2 2.32 2 3 2 C2 5 2 5 0.15234375 5.94921875 C-0.57855469 6.19285156 -1.30945313 6.43648437 -2.0625 6.6875 C-3.16271484 7.06455078 -3.16271484 7.06455078 -4.28515625 7.44921875 C-4.85105469 7.63097656 -5.41695313 7.81273437 -6 8 C-4.55746343 4.63408134 -2.66735273 2.48952921 0 0 Z " fill="#C4CACD" transform="translate(110,128)"/>
<path d="M0 0 C0.53625 0.268125 1.0725 0.53625 1.625 0.8125 C-0.52502097 2.48473853 -2.65645317 3.98003165 -5 5.375 C-7.45111371 6.72942163 -7.45111371 6.72942163 -9.375 8.8125 C-9.12158809 5.39143924 -8.06717816 4.50467816 -5.5625 2 C-2.375 -0.1875 -2.375 -0.1875 0 0 Z " fill="#14181F" transform="translate(66.375,70.1875)"/>
<path d="M0 0 C0.66 0.66 1.32 1.32 2 2 C-1.85477249 4.56984833 -5.52040582 5.85814266 -10 7 C-7.48725447 3.2308817 -5.13200244 2.65280098 -1 1 C-0.67 0.67 -0.34 0.34 0 0 Z " fill="#E7EAEC" transform="translate(91,134)"/>
<path d="M0 0 C2.0234375 3.7578125 2.0234375 3.7578125 1.8125 5.9375 C0.80961303 8.48328999 -0.52912929 10.69776759 -2 13 C-3.45047396 10.09905209 -2.45356803 8.44027404 -1.5625 5.375 C-1.27503906 4.37210937 -0.98757812 3.36921875 -0.69140625 2.3359375 C-0.46324219 1.56507812 -0.23507813 0.79421875 0 0 Z " fill="#B6B9BC" transform="translate(70,118)"/>
<path d="M0 0 C0.99 0.495 0.99 0.495 2 1 C2 2.32 2 3.64 2 5 C2.99 5 3.98 5 5 5 C5.33 4.34 5.66 3.68 6 3 C6.33 3.99 6.66 4.98 7 6 C6 7 6 7 3.5 7.125 C1 7 1 7 0 6 C-0.04080783 4.00041636 -0.04254356 1.99954746 0 0 Z " fill="#1C1E24" transform="translate(53,82)"/>
<path d="M0 0 C0.66 0.33 1.32 0.66 2 1 C2.625 3.0625 2.625 3.0625 3 5 C0.03 7.475 0.03 7.475 -3 10 C-2.21302675 6.58978257 -1.12880057 3.31114834 0 0 Z " fill="#181C22" transform="translate(77,85)"/>
<path d="M0 0 C0 0.66 0 1.32 0 2 C0.99 2.33 1.98 2.66 3 3 C0.08517222 3.80967438 -1.46113217 4.21845993 -4.3125 3.0625 C-4.869375 2.711875 -5.42625 2.36125 -6 2 C-3 0 -3 0 0 0 Z " fill="#5A6A77" transform="translate(91,149)"/>
<path d="M0 0 C2 2 2 2 2.125 5.125 C2.08375 6.07375 2.0425 7.0225 2 8 C1.01 8.495 1.01 8.495 0 9 C-0.185625 8.071875 -0.185625 8.071875 -0.375 7.125 C-0.87197356 4.80879168 -0.87197356 4.80879168 -3 3 C-2.01 2.01 -1.02 1.02 0 0 Z " fill="#080C14" transform="translate(73,94)"/>
<path d="M0 0 C0.66 0.66 1.32 1.32 2 2 C1.67 2.99 1.34 3.98 1 5 C0.34 5 -0.32 5 -1 5 C-1.66 6.32 -2.32 7.64 -3 9 C-3.66 8.34 -4.32 7.68 -5 7 C-3.35 4.69 -1.7 2.38 0 0 Z " fill="#232629" transform="translate(83,76)"/>
<path d="M0 0 C1.125 1.5625 1.125 1.5625 2 4 C1.125 7.75 1.125 7.75 0 11 C-1.125 9.4375 -1.125 9.4375 -2 7 C-1.125 3.25 -1.125 3.25 0 0 Z " fill="#21252B" transform="translate(65,124)"/>
<path d="M0 0 C2.97 0.33 5.94 0.66 9 1 C9 1.33 9 1.66 9 2 C5.7 2.33 2.4 2.66 -1 3 C-0.67 2.01 -0.34 1.02 0 0 Z " fill="#808D9C" transform="translate(94,147)"/>
<path d="M0 0 C0 0.66 0 1.32 0 2 C-2.64 2 -5.28 2 -8 2 C-8 1.34 -8 0.68 -8 0 C-5.13822943 -1.43088528 -3.06624227 -0.59991697 0 0 Z " fill="#909DA8" transform="translate(105,146)"/>
<path d="M0 0 C0 0.66 0 1.32 0 2 C-3.375 2.625 -3.375 2.625 -7 3 C-7.66 2.34 -8.32 1.68 -9 1 C-5.8035914 -0.06546953 -3.34252724 -0.07427838 0 0 Z " fill="#B2BBC3" transform="translate(135,136)"/>
<path d="M0 0 C0.33 0 0.66 0 1 0 C3 5.625 3 5.625 3 9 C0.9375 7.3125 0.9375 7.3125 -1 5 C-0.75 2.25 -0.75 2.25 0 0 Z " fill="#1A2028" transform="translate(44,140)"/>
<path d="M0 0 C-1.125 1.5 -1.125 1.5 -3 3 C-6.1875 3.1875 -6.1875 3.1875 -9 3 C-6.07868595 -0.19953443 -4.37453972 -1.45817991 0 0 Z " fill="#B1BDC5" transform="translate(122,143)"/>
<path d="M0 0 C1.65 0 3.3 0 5 0 C5 1.98 5 3.96 5 6 C4.67 4.68 4.34 3.36 4 2 C2.35 2.33 0.7 2.66 -1 3 C-0.67 2.01 -0.34 1.02 0 0 Z " fill="#171B20" transform="translate(135,125)"/>
<path d="M0 0 C0.66 0.66 1.32 1.32 2 2 C-0.31 3.65 -2.62 5.3 -5 7 C-5 6.01 -5 5.02 -5 4 C-2.5 1.8125 -2.5 1.8125 0 0 Z " fill="#1C2126" transform="translate(89,95)"/>
<path d="M0 0 C0.33 0.99 0.66 1.98 1 3 C-0.375 4.5 -0.375 4.5 -2 6 C-2.66 6 -3.32 6 -4 6 C-4.99 6.495 -4.99 6.495 -6 7 C-4.60667426 3.63279613 -3.0210714 2.0140476 0 0 Z " fill="#E2E4E5" transform="translate(117,37)"/>
</svg>
