<?xml version="1.0" encoding="UTF-8"?>
<svg version="1.1" xmlns="http://www.w3.org/2000/svg" width="576" height="78">
<path d="M0 0 C190.08 0 380.16 0 576 0 C576 25.74 576 51.48 576 78 C385.92 78 195.84 78 0 78 C0 52.26 0 26.52 0 0 Z " fill="#FBFCFD" transform="translate(0,0)"/>
<path d="M0 0 C90.09 0 180.18 0 273 0 C270.35688038 1.76207974 267.75559996 3.17337441 264.9375 4.625 C255.65131913 9.6734396 245.17679183 16.83206333 241 27 C240.25148073 32.89094386 240.50766978 38.0431442 244 43 C249.32292015 48.35239981 255.39844808 51.49073314 262.12304688 54.7421875 C262.85201172 55.10828125 263.58097656 55.474375 264.33203125 55.8515625 C264.98921143 56.16947754 265.6463916 56.48739258 266.32348633 56.81494141 C268.38087305 58.2692235 269.04940292 59.69893478 270 62 C266.02606998 65.47371505 263.02997802 65.61289723 257.890625 65.49609375 C253.82411901 64.7981934 251.19641624 63.00246042 247.97265625 60.5078125 C246.05571434 59.04258562 244.18562329 58.00724474 242 57 C239.30226386 59.58044326 238.11094477 61.00149703 237.6875 64.8125 C238.08448249 68.86172141 239.06167381 70.21235721 242 73 C248.01288626 76.50751698 254.14314944 76.67348331 261 77 C261 77.33 261 77.66 261 78 C174.87 78 88.74 78 0 78 C0 52.26 0 26.52 0 0 Z " fill="#94A5CF" transform="translate(0,0)"/>
<path d="M0 0 C5.91228951 4.01547618 8.4192684 9.27880087 10.18603516 16.05273438 C10.81368098 20.05522981 10.72756647 23.96015638 10.671875 28.00390625 C10.65922993 29.78320119 10.64686888 31.56249817 10.63476562 33.34179688 C10.60995773 36.13084341 10.58196279 38.91978262 10.54858398 41.70874023 C10.51828781 44.41130233 10.5005805 47.11372801 10.484375 49.81640625 C10.47091537 50.64470444 10.45745575 51.47300262 10.44358826 52.32640076 C10.42349127 56.99108709 10.98289225 60.55690719 12.64453125 64.9765625 C12.56729581 68.83833438 12.12505379 70.42323351 9.58203125 73.3515625 C5.47778985 75.62199391 3.30872818 75.56884147 -1.35546875 74.9765625 C-3.85546875 73.1015625 -3.85546875 73.1015625 -5.35546875 70.9765625 C-5.35546875 70.3165625 -5.35546875 69.6565625 -5.35546875 68.9765625 C-6.0825 69.3375 -6.80953125 69.6984375 -7.55859375 70.0703125 C-15.59434542 73.77912096 -22.98089578 75.86884867 -31.7109375 73.27734375 C-37.04912712 70.90370221 -40.72768582 67.23212836 -43.35546875 61.9765625 C-44.19780087 54.16879165 -42.66426765 47.65438245 -37.85546875 41.4140625 C-29.5757871 32.43757596 -17.42737679 26.87077791 -5.35546875 25.9765625 C-5.66316582 24.16324096 -5.97675939 22.35091905 -6.29296875 20.5390625 C-6.46699219 19.52972656 -6.64101562 18.52039063 -6.8203125 17.48046875 C-7.10297972 15.0478187 -7.10297972 15.0478187 -8.35546875 13.9765625 C-10.68506345 13.47414928 -10.68506345 13.47414928 -13.35546875 13.9765625 C-15.80538681 16.10412292 -17.87778034 18.4325597 -20.015625 20.8671875 C-24.60778643 25.83277744 -24.60778643 25.83277744 -28.60546875 26.6015625 C-31.35546875 25.9765625 -31.35546875 25.9765625 -33.23046875 24.9765625 C-34.65372321 22.44633235 -35.13437227 20.19734802 -35.02734375 17.296875 C-32.92637058 10.0411886 -25.45081454 4.51071799 -19.1796875 0.81640625 C-13.39967059 -1.84462937 -5.88510424 -2.55704363 0 0 Z " fill="#1E419A" transform="translate(117.35546875,2.0234375)"/>
<path d="M0 0 C6.45986754 3.72684666 9.31948533 8.79707977 11.25 15.875 C11.66532502 19.15783406 11.7141704 22.40454899 11.7265625 25.7109375 C11.74214203 26.63033112 11.75772156 27.54972473 11.77377319 28.49697876 C11.82095357 31.414644 11.84891261 34.33207685 11.875 37.25 C11.91175749 40.16061246 11.95265407 43.07110127 11.99765015 45.9815979 C12.02439659 47.78472623 12.04594666 49.58794256 12.06118774 51.39120483 C12.1251765 56.59350943 12.49979681 61.6419291 13.20956421 66.79849243 C13.25 68.875 13.25 68.875 11.5 71.375 C6.25 74.875 6.25 74.875 2.8125 74.8125 C-1.35872846 73.7148083 -2.4654278 72.43893264 -4.75 68.875 C-5.35328125 69.07996094 -5.9565625 69.28492187 -6.578125 69.49609375 C-7.37734375 69.76550781 -8.1765625 70.03492187 -9 70.3125 C-9.78890625 70.57933594 -10.5778125 70.84617187 -11.390625 71.12109375 C-18.5202397 73.39926533 -26.18955365 74.4435801 -33.1875 71.1875 C-37.16274509 68.89847568 -39.69749398 65.98001204 -41.75 61.875 C-42.44635232 54.45485228 -42.42397239 47.9296309 -37.75 41.875 C-30.46441765 33.77306275 -20.44580346 28.05781703 -9.75 25.875 C-6.8125 25.75 -6.8125 25.75 -4.75 25.875 C-4.86458693 24.43663249 -4.99209116 22.99929034 -5.125 21.5625 C-5.22941406 20.36173828 -5.22941406 20.36173828 -5.3359375 19.13671875 C-5.64564426 16.60275559 -5.64564426 16.60275559 -7.75 13.875 C-12.54575511 14.14260454 -14.65409033 15.35613683 -17.84570312 18.921875 C-18.74246587 19.97658285 -19.63308998 21.03654006 -20.51757812 22.1015625 C-21.87109375 23.6015625 -21.87109375 23.6015625 -24.75 25.875 C-28.47265625 25.8984375 -28.47265625 25.8984375 -31.75 24.875 C-34.10620437 21.34069344 -34.23991613 20.03928713 -33.75 15.875 C-27.31711668 3.52386403 -13.51925094 -4.05577528 0 0 Z " fill="#1E409A" transform="translate(217.75,3.125)"/>
<path d="M0 0 C3.51724839 2.18851011 5.54878777 4.14080287 7 8 C7.21884972 10.65177643 7.32472952 13.16358523 7.3125 15.8125 C7.32861328 16.49892578 7.34472656 17.18535156 7.36132812 17.89257812 C7.36612374 22.96154769 6.40189739 26.51683321 4 31 C1 33 1 33 -2.625 32.6875 C-6 32 -6 32 -7 31 C-7.39277298 25.76302687 -6.25447333 21.04029461 -5 16 C-13.28211467 18.05584407 -19.7920449 21.94288031 -25.125 28.6875 C-26.15856494 31.41906448 -26.0360129 32.31154653 -25 35 C-23.45279123 36.51399091 -23.45279123 36.51399091 -21.375 37.75 C-20.57191406 38.26304688 -19.76882813 38.77609375 -18.94140625 39.3046875 C-16.73674898 40.57536646 -14.55080376 41.74925369 -12.27734375 42.8828125 C2.14400094 50.08902114 2.14400094 50.08902114 5 57 C6.09357315 61.31630008 5.38963087 64.94314739 3.125 68.75 C-1.00518531 73.93344173 -7.75609532 75.59681796 -14 77 C-31.94671205 78.11709126 -31.94671205 78.11709126 -39 73 C-41.85731866 70.28554727 -42.86888139 68.89909901 -43.4375 65 C-42.93980037 61.58720253 -42.15208938 59.69011173 -40 57 C-38.109375 56.1875 -38.109375 56.1875 -36 56 C-34.21875 57.14453125 -34.21875 57.14453125 -32.5 58.8125 C-28.28547289 62.84503617 -25.34834908 64.28216789 -19.4375 64.25 C-18.01244141 64.25773437 -18.01244141 64.25773437 -16.55859375 64.265625 C-13.75900727 64.17576075 -13.75900727 64.17576075 -11 62 C-12.03001269 58.5333155 -13.17886914 57.90074195 -16.4140625 56.10546875 C-17.81411477 55.45831417 -19.21798124 54.8193652 -20.625 54.1875 C-28.1045794 50.63372187 -34.1189971 47.05141032 -39 40.1875 C-40.67167811 34.85902602 -41.24976779 29.9210259 -39.00390625 24.671875 C-31.62638336 12.71736199 -14.83210544 -1.27862978 0 0 Z " fill="#2FABBD" transform="translate(280,0)"/>
<path d="M0 0 C1.97265625 0.265625 1.97265625 0.265625 4.97265625 2.265625 C5.49682617 4.42041016 5.49682617 4.42041016 5.703125 7.0546875 C5.78369141 7.99570312 5.86425781 8.93671875 5.94726562 9.90625 C6.01751953 10.89109375 6.08777344 11.8759375 6.16015625 12.890625 C6.28293945 14.37949219 6.28293945 14.37949219 6.40820312 15.8984375 C6.60885294 18.35344705 6.7964428 20.80876026 6.97265625 23.265625 C7.58753906 21.56792969 7.58753906 21.56792969 8.21484375 19.8359375 C8.7588241 18.35406 9.30311088 16.87229496 9.84765625 15.390625 C10.25177734 14.27107422 10.25177734 14.27107422 10.6640625 13.12890625 C12.74609375 7.4921875 12.74609375 7.4921875 14.97265625 5.265625 C18.67848755 4.85386597 21.02924292 4.66288871 24.22265625 6.703125 C27.54234045 11.56409116 29.54717693 17.32891132 28.97265625 23.265625 C29.63265625 23.265625 30.29265625 23.265625 30.97265625 23.265625 C31.31296875 21.3475 31.31296875 21.3475 31.66015625 19.390625 C33.06245873 13.06023093 35.6750174 5.37877949 40.97265625 1.265625 C44.50114215 0.54000895 47.86033404 0.65890379 51.03515625 2.390625 C52.45768 5.2356725 51.66661199 7.21147755 50.97265625 10.265625 C50.12101214 12.06863104 49.19893416 13.83944449 48.22265625 15.578125 C42.87952786 25.91759219 39.8154593 37.28552415 38.625 48.84765625 C37.78433861 51.96364067 36.46540389 53.26227919 33.97265625 55.265625 C30.97265625 55.828125 30.97265625 55.828125 27.97265625 55.265625 C24.47179875 51.63635767 22.93214372 48.00886492 21.34765625 43.265625 C19.97873997 39.21991065 18.60294042 35.21420317 16.97265625 31.265625 C14.53770825 37.32468164 12.54907106 42.82035123 12.34375 49.390625 C11.85537652 51.85819629 10.92518971 52.72293936 8.97265625 54.265625 C6.03515625 55.203125 6.03515625 55.203125 2.97265625 55.265625 C-5.55828592 48.46349119 -6.4783499 32.99936024 -7.78857422 22.66650391 C-8.19950392 18.53451756 -8.31809328 14.41620016 -8.33984375 10.265625 C-8.34532227 9.49387939 -8.35080078 8.72213379 -8.35644531 7.92700195 C-8.26554918 0.98990289 -6.88800671 0.05149912 0 0 Z " fill="#2FACBD" transform="translate(413.02734375,21.734375)"/>
<path d="M0 0 C2.13586678 3.20380017 2.23132175 4.01939967 2.125 7.6875 C2.10695313 8.49574219 2.08890625 9.30398437 2.0703125 10.13671875 C2.04710937 10.75160156 2.02390625 11.36648437 2 12 C1.27296875 12.14695312 0.5459375 12.29390625 -0.203125 12.4453125 C-12.15143382 15.11070447 -23.74509927 19.80821239 -31.375 29.80078125 C-34.75450726 35.46849655 -34.86877709 41.57466947 -34 48 C-31.93076877 52.8282062 -29.03687453 55.22934974 -24.328125 57.3046875 C-16.47674279 59.64956339 -9.64703079 57.94355835 -2.3125 54.77734375 C0 54 0 54 3 55 C4.65 56.98 6.3 58.96 8 61 C-16.42 61 -40.84 61 -66 61 C-64.35 59.68 -62.7 58.36 -61 57 C-60.59959108 53.19611527 -60.79223794 50.62328619 -62 47 C-63.20341086 34.01312193 -62.48034554 21.53618688 -54 11 C-48.12959311 5.82845108 -44.73876207 5.92534057 -37.06640625 6.0625 C-33.95800526 6.15090725 -33.95800526 6.15090725 -31 5 C-30.67 4.01 -30.34 3.02 -30 2 C-29.01 1.67 -28.02 1.34 -27 1 C-26.34 3.97 -25.68 6.94 -25 10 C-21.78110087 10.97893895 -21.78110087 10.97893895 -18 11 C-15.65075713 9.23122982 -14.06576528 7.79732373 -12.1875 5.625 C-5.5264883 -1.65794649 -5.5264883 -1.65794649 0 0 Z " fill="#FBFBFD" transform="translate(211,17)"/>
<path d="M0 0 C2.2122781 2.17724203 2.94092991 3.48018317 3.29296875 6.578125 C3.25816406 7.45984375 3.22335938 8.3415625 3.1875 9.25 C3.16042969 10.14203125 3.13335937 11.0340625 3.10546875 11.953125 C3.07066406 12.62859375 3.03585938 13.3040625 3 14 C3.54527344 13.60167969 4.09054688 13.20335937 4.65234375 12.79296875 C12.45004554 7.31458339 20.25057927 3.56403881 30 5 C34.54054054 7.08108108 34.54054054 7.08108108 36 10 C36.4136968 14.65408901 35.81070393 17.25239476 33 21 C29.37793205 23.41471197 27.95293954 23.10130936 23.6875 22.875 C19.59891965 22.82962175 17.29480448 22.87365522 13.5 24.5 C6.91102913 31.08897087 2.95061369 39.55721494 2.671875 48.9296875 C2.68230924 50.57829767 2.70840711 52.22688156 2.75 53.875 C2.75515625 54.71546875 2.7603125 55.5559375 2.765625 56.421875 C2.81045579 59.92988437 2.88109824 62.64329471 4 66 C4.45652174 72.39130435 4.45652174 72.39130435 2.7578125 74.65625 C-0.44558717 77.10507108 -4.05962235 77.33932953 -8 77 C-12.30894252 73.97457227 -13.73158945 71.00230068 -15 66 C-15.27474354 62.39391432 -15.25652425 58.80247685 -15.23046875 55.1875 C-15.23001053 54.14158691 -15.22955231 53.09567383 -15.2290802 52.01806641 C-15.22606458 49.80581528 -15.21819897 47.59356615 -15.20581055 45.38134766 C-15.18771286 42.03930906 -15.18530008 38.69755096 -15.18554688 35.35546875 C-15.17896964 30.1416185 -15.12958762 24.92991156 -15.04241943 19.71679688 C-15.01576803 18.00988022 -14.99676112 16.30280941 -14.98883057 14.59570312 C-14.97625496 12.60506852 -14.92188038 10.61481165 -14.86328125 8.625 C-14.84177002 7.58601562 -14.82025879 6.54703125 -14.7980957 5.4765625 C-14 3 -14 3 -11.08544922 1.17553711 C-6.8749455 -0.42863882 -4.47633845 -0.51367818 0 0 Z " fill="#20429B" transform="translate(147,1)"/>
<path d="M0 0 C0.75087891 -0.00708984 1.50175781 -0.01417969 2.27539062 -0.02148438 C6.8317741 0.03061148 9.88517463 0.49018171 13.5625 3.4375 C20.03512874 11.64250879 19.24215912 22.12837895 18.32421875 32 C16.93286194 39.6454354 13.34396842 48.48960323 7.375 53.625 C2.03378502 57.06711632 -3.2460352 57.17354826 -9.4375 56.4375 C-13.98321305 54.73389639 -16.60981988 51.71575189 -18.875 47.5 C-23.45599789 35.48231723 -19.86836884 21.38415029 -15.421875 9.7890625 C-11.77871319 2.01120117 -8.50082118 -0.22504309 0 0 Z " fill="#2FABBD" transform="translate(308.4375,20.5625)"/>
<path d="M0 0 C4.10721826 2.89372196 6.06475729 6.3130538 7.3515625 11.24145508 C7.82301971 14.43159108 7.84431508 17.4741863 7.8125 20.69921875 C7.80476563 21.98248047 7.79703125 23.26574219 7.7890625 24.58789062 C7.77662194 25.93359924 7.76359454 27.27930255 7.75 28.625 C7.7234421 31.27478278 7.70351954 33.92431959 7.6875 36.57421875 C7.67589844 37.74686279 7.66429687 38.91950684 7.65234375 40.12768555 C7.5533871 42.8908378 7.5533871 42.8908378 8.75 44.9375 C9.125 47.8125 9.125 47.8125 8.75 50.9375 C6.01513033 53.99411905 4.54836847 54.87724578 0.4375 55.1875 C-0.449375 55.105 -1.33625 55.0225 -2.25 54.9375 C-2.91 53.6175 -3.57 52.2975 -4.25 50.9375 C-5.384375 51.4325 -6.51875 51.9275 -7.6875 52.4375 C-12.25556437 54.12727956 -16.41836718 54.75171961 -21.25 53.9375 C-25.23539093 51.871001 -27.87476202 49.72705348 -30.25 45.9375 C-31.15469213 41.42105249 -31.13590292 36.93859836 -29.25390625 32.6875 C-24.6626106 26.02817034 -17.50357754 20.4975826 -9.625 18.5 C-8.51125 18.314375 -7.3975 18.12875 -6.25 17.9375 C-6.25 15.9575 -6.25 13.9775 -6.25 11.9375 C-8.54191849 11.90497064 -8.54191849 11.90497064 -11.25 12.9375 C-12.79311722 14.573708 -12.79311722 14.573708 -14.25 16.5 C-16.93740974 19.85753505 -16.93740974 19.85753505 -19.9375 20.625 C-22.25 19.9375 -22.25 19.9375 -24.125 18.3125 C-25.69663887 14.99459572 -25.36497202 13.42178757 -24.25 9.9375 C-18.3072548 1.11342379 -10.54472269 -3.44731319 0 0 Z " fill="#2FACBD" transform="translate(491.25,22.0625)"/>
<path d="M0 0 C3.70390021 2.02666238 5.65363011 3.48044516 8 7 C8.95822812 14.28253373 8.68264512 20.7681416 4.609375 27.00390625 C-0.55400315 33.40799905 -6.33406877 37.143021 -14 40 C-13.67 40.99 -13.34 41.98 -13 43 C-7.90368269 43.29978337 -5.13103793 43.01858519 -1 40 C0.89825551 37.44620286 2.50670434 34.80144733 4.15625 32.08203125 C6 30 6 30 8.60546875 29.6328125 C11 30 11 30 12.8125 31.0625 C14.68725599 34.12131241 14.35759568 36.48364244 14 40 C11.68785109 46.93644674 6.03417145 50.81257407 0.3125 54.9375 C-5.90917715 56.93313229 -12.61617947 57.40469582 -18.73828125 54.86328125 C-23.47796247 51.90776808 -25.89981962 49.26965993 -28 44 C-28.96287103 35.94775501 -28.34597101 28.39560115 -25 21 C-24.70996094 20.32582031 -24.41992188 19.65164062 -24.12109375 18.95703125 C-19.60553138 9.18905742 -12.19412637 -2.0323544 0 0 Z " fill="#2FABBD" transform="translate(562,21)"/>
<path d="M0 0 C13.2 0 26.4 0 40 0 C39.34 0.66 38.68 1.32 38 2 C37.56610751 4.79371652 37.56610751 4.79371652 37.4375 8.08203125 C37.36273438 9.32533203 37.28796875 10.56863281 37.2109375 11.84960938 C37.14132813 13.15736328 37.07171875 14.46511719 37 15.8125 C36.85978747 18.36099255 36.71398656 20.909184 36.5625 23.45703125 C36.47162109 25.1582312 36.47162109 25.1582312 36.37890625 26.89379883 C35.84992273 32.62638503 34.87538422 38.31000258 34 44 C23.77 44 13.54 44 3 44 C3 37.68579833 3.27825205 32.38091099 4.4375 26.3125 C5.83663429 18.53699659 6.63168287 10.89976745 7 3 C4.69 2.34 2.38 1.68 0 1 C0 0.67 0 0.34 0 0 Z " fill="#FCFCFD" transform="translate(21,0)"/>
<path d="M0 0 C1.78125 1.3046875 1.78125 1.3046875 3 3 C3.36248449 6.38318857 3.58433618 8.86784865 2 11.9375 C-1.26642246 13.67278693 -4.34351452 13.17982715 -8 13 C-8.66 14.32 -9.32 15.64 -10 17 C-9.11248047 17.03867187 -9.11248047 17.03867187 -8.20703125 17.078125 C-4.25140601 17.36205242 -1.43305278 17.77481255 2.125 19.625 C4 22 4 22 3.875 25.6875 C3 29 3 29 2 30 C-0.53049402 30.07313567 -3.03304837 30.09247527 -5.5625 30.0625 C-6.27341797 30.05798828 -6.98433594 30.05347656 -7.71679688 30.04882812 C-9.47790013 30.03700864 -11.23896036 30.01907263 -13 30 C-13.02489563 34.5532187 -13.04295187 39.10639693 -13.05493164 43.65966797 C-13.05993092 45.20557344 -13.06673253 46.75147425 -13.07543945 48.29736328 C-13.08769956 50.53158728 -13.09327249 52.76574826 -13.09765625 55 C-13.10281754 55.68054443 -13.10797882 56.36108887 -13.11329651 57.06225586 C-13.11369599 60.55342464 -12.91561395 63.92372997 -12.43139648 67.375 C-12 71 -12 71 -13 73 C-16.15621991 74.57810996 -18.53391214 74.42565991 -22 74 C-24.19604492 72.42138672 -24.19604492 72.42138672 -26 70 C-26.4699707 66.70361328 -26.4699707 66.70361328 -26.42578125 62.8203125 C-26.42249313 62.12992889 -26.41920502 61.43954529 -26.41581726 60.72824097 C-26.40010599 58.52651797 -26.35610258 56.32632785 -26.3125 54.125 C-26.30100256 52.65235625 -26.2912192 51.17969806 -26.28320312 49.70703125 C-26.22653228 43.71412096 -26.13042772 37.90644214 -25 32 C-25.763125 32.226875 -26.52625 32.45375 -27.3125 32.6875 C-30 33 -30 33 -31.875 32 C-33.68973484 28.77380472 -32.93056115 26.47409497 -32 23 C-30.08036885 21.08036885 -28.50284053 20.19295044 -25.984375 19.2265625 C-23.33049778 17.58617382 -23.01652566 16.11991989 -22.0625 13.1875 C-20.42067191 8.73660666 -18.76640724 6.03149851 -15 3 C-13.9171875 2.1028125 -13.9171875 2.1028125 -12.8125 1.1875 C-8.67279363 -0.56037602 -4.42832475 -0.76557479 0 0 Z " fill="#2FACBD" transform="translate(361,3)"/>
<path d="M0 0 C1.97265625 0.36328125 1.97265625 0.36328125 3.71484375 1.49609375 C5.53952767 4.20478603 5.26422452 6.32466477 5.16015625 9.55078125 C5.13308594 10.63746094 5.10601562 11.72414063 5.078125 12.84375 C5.04332031 13.67519531 5.00851562 14.50664062 4.97265625 15.36328125 C5.61074219 15.35167969 6.24882812 15.34007812 6.90625 15.328125 C7.73253906 15.31910156 8.55882812 15.31007813 9.41015625 15.30078125 C10.23386719 15.28917969 11.05757813 15.27757812 11.90625 15.265625 C13.97265625 15.36328125 13.97265625 15.36328125 14.97265625 16.36328125 C15.07124228 17.81887495 15.10237768 19.27936044 15.09765625 20.73828125 C15.10152344 21.92550781 15.10152344 21.92550781 15.10546875 23.13671875 C14.97265625 25.36328125 14.97265625 25.36328125 13.97265625 28.36328125 C10.67265625 28.36328125 7.37265625 28.36328125 3.97265625 28.36328125 C3.9475939 32.29190072 3.92962826 36.22048804 3.91772461 40.14916992 C3.91033185 42.12876017 3.89761351 44.10832826 3.88476562 46.08789062 C3.86750896 52.9042714 4.04449574 59.53457314 4.95141602 66.2956543 C4.95842529 66.97797119 4.96543457 67.66028809 4.97265625 68.36328125 C2.97265625 70.36328125 2.97265625 70.36328125 -0.40234375 70.73828125 C-4.02734375 70.36328125 -4.02734375 70.36328125 -6.33984375 68.73828125 C-10.36017034 63.08004382 -10.31482749 57.34219708 -10.21484375 50.67578125 C-10.20517578 49.34981934 -10.20517578 49.34981934 -10.1953125 47.99707031 C-10.12197831 41.75220558 -9.82355098 35.56232323 -9.02734375 29.36328125 C-9.95546875 29.42515625 -10.88359375 29.48703125 -11.83984375 29.55078125 C-15.02734375 29.36328125 -15.02734375 29.36328125 -16.7109375 28.140625 C-18.39777107 25.86314941 -18.36872412 24.54365865 -18.27734375 21.73828125 C-18.261875 20.94164063 -18.24640625 20.145 -18.23046875 19.32421875 C-18.02734375 17.36328125 -18.02734375 17.36328125 -17.02734375 16.36328125 C-15.50806337 16.29148161 -13.98566893 16.27936118 -12.46484375 16.30078125 C-11.63855469 16.30980469 -10.81226563 16.31882812 -9.9609375 16.328125 C-9.32285156 16.33972656 -8.68476563 16.35132813 -8.02734375 16.36328125 C-8.05054688 15.37585937 -8.07375 14.3884375 -8.09765625 13.37109375 C-8.11570312 12.08976562 -8.13375 10.8084375 -8.15234375 9.48828125 C-8.17554688 8.21210938 -8.19875 6.9359375 -8.22265625 5.62109375 C-7.8742251 -0.19073785 -5.20977217 0.12659259 0 0 Z " fill="#2FACBE" transform="translate(386.02734375,6.63671875)"/>
<path d="M0 0 C1.9375 1.6875 1.9375 1.6875 3 4 C3.04183812 5.66614146 3.04696862 7.33399528 3 9 C3.556875 8.6390625 4.11375 8.278125 4.6875 7.90625 C10.13529679 4.5934006 13.62569499 3.24372652 20 4 C22.81009519 5.00875212 23.66697708 5.33395417 25 8 C25.52981019 11.97357645 25.31881474 13.54170381 23 16.875 C19.44684945 19.39181497 18.05671965 19.17461442 13.921875 18.94921875 C11.77434274 18.87023705 11.77434274 18.87023705 9.25 20.375 C2.99723539 27.66989205 2.50503014 35.77002678 2.9375 45 C3.0226537 47.0411468 3.09495095 49.08288406 3.15234375 51.125 C3.19351318 52.01445313 3.23468262 52.90390625 3.27709961 53.8203125 C3.18565674 54.53960937 3.09421387 55.25890625 3 56 C-0.70415293 58.46943529 -2.62144505 58.46913089 -7 58 C-9.6995775 55.39040841 -10.88464543 52.66023272 -11.14717102 48.8818512 C-11.15701523 48.0656279 -11.16685944 47.2494046 -11.17700195 46.40844727 C-11.18983719 45.48060928 -11.20267242 44.5527713 -11.21589661 43.59681702 C-11.22328354 42.59678146 -11.23067047 41.59674591 -11.23828125 40.56640625 C-11.246353 39.53692368 -11.25442474 38.5074411 -11.26274109 37.44676208 C-11.27657204 35.26880575 -11.28729861 33.09082784 -11.29516602 30.9128418 C-11.31241541 27.57884965 -11.35631516 24.24583982 -11.40039062 20.91210938 C-11.41051449 18.79688229 -11.41903155 16.68164679 -11.42578125 14.56640625 C-11.44328934 13.56839493 -11.46079742 12.57038361 -11.47883606 11.54212952 C-11.45722954 4.66638312 -11.45722954 4.66638312 -9.19604492 1.37084961 C-5.96781864 -0.64432444 -3.71667668 -0.54060752 0 0 Z " fill="#2FACBD" transform="translate(514,19)"/>
<path d="M0 0 C3.51724839 2.18851011 5.54878777 4.14080287 7 8 C7.21884972 10.65177643 7.32472952 13.16358523 7.3125 15.8125 C7.32861328 16.49892578 7.34472656 17.18535156 7.36132812 17.89257812 C7.36612374 22.96154769 6.40189739 26.51683321 4 31 C1 33 1 33 -2.625 32.6875 C-6 32 -6 32 -7 31 C-7.39277298 25.76302687 -6.25447333 21.04029461 -5 16 C-13.28211467 18.05584407 -19.7920449 21.94288031 -25.125 28.6875 C-26.15856494 31.41906448 -26.0360129 32.31154653 -25 35 C-23.45279123 36.51399091 -23.45279123 36.51399091 -21.375 37.75 C-20.57191406 38.26304688 -19.76882813 38.77609375 -18.94140625 39.3046875 C-16.73674898 40.57536646 -14.55080376 41.74925369 -12.27734375 42.8828125 C2.14400094 50.08902114 2.14400094 50.08902114 5 57 C6.09357315 61.31630008 5.38963087 64.94314739 3.125 68.75 C-1.00518531 73.93344173 -7.75609532 75.59681796 -14 77 C-31.94671205 78.11709126 -31.94671205 78.11709126 -39 73 C-41.85731866 70.28554727 -42.86888139 68.89909901 -43.4375 65 C-42.93980037 61.58720253 -42.15208938 59.69011173 -40 57 C-38.109375 56.1875 -38.109375 56.1875 -36 56 C-34.21875 57.14453125 -34.21875 57.14453125 -32.5 58.8125 C-28.28547289 62.84503617 -25.34834908 64.28216789 -19.4375 64.25 C-18.01244141 64.25773437 -18.01244141 64.25773437 -16.55859375 64.265625 C-13.75900727 64.17576075 -13.75900727 64.17576075 -11 62 C-12.03001269 58.5333155 -13.17886914 57.90074195 -16.4140625 56.10546875 C-17.81411477 55.45831417 -19.21798124 54.8193652 -20.625 54.1875 C-28.1045794 50.63372187 -34.1189971 47.05141032 -39 40.1875 C-40.67167811 34.85902602 -41.24976779 29.9210259 -39.00390625 24.671875 C-31.62638336 12.71736199 -14.83210544 -1.27862978 0 0 Z M-35.51953125 22.81640625 C-38.45576795 27.28820137 -38.91521699 31.84836621 -38 37 C-33.50545752 46.16886666 -24.63290388 50.52076232 -15.7890625 54.65429688 C-10.21088783 57.41883239 -10.21088783 57.41883239 -8.9921875 60.77734375 C-8.99476563 61.51082031 -8.99734375 62.24429688 -9 63 C-13.19994954 66.47582031 -17.13173816 66.44308961 -22.34765625 66.2890625 C-27.13004877 65.76785919 -30.04133167 63.82171571 -33.625 60.75 C-35.82325384 58.71719191 -35.82325384 58.71719191 -38.3125 59.25 C-38.869375 59.4975 -39.42625 59.745 -40 60 C-40.9491946 63.21326257 -40.9491946 63.21326257 -41 67 C-38.21799641 71.33665266 -35.88774039 73.52152604 -31 75 C-20.81373312 75.8957249 -9.81582964 76.1195133 -1.2578125 69.69140625 C1.45851028 67.10552834 2.85784702 65.01876305 3.375 61.3125 C2.87004149 56.85203312 1.07955371 54.13673484 -2 51 C-5.7161729 48.46408477 -9.63931732 46.39166491 -13.625 44.3125 C-15.70483172 43.21253986 -17.78055491 42.10476675 -19.8515625 40.98828125 C-20.76760254 40.50915283 -21.68364258 40.03002441 -22.62744141 39.53637695 C-25.12939744 37.91620724 -26.49388706 36.56101823 -28 34 C-27.89499811 29.06491129 -26.44940839 26.44940839 -23 23 C-12.23996917 14.84740798 -12.23996917 14.84740798 -4 15 C-3.89748328 20.12583611 -3.96409801 24.94997778 -5 30 C-2.70705512 30.85974801 -2.70705512 30.85974801 0 31 C3.14473947 28.64144539 4.32316492 26.79816192 5 23 C5.1177153 20.85648652 5.17509129 18.70920747 5.1875 16.5625 C5.20167969 15.45003906 5.21585937 14.33757813 5.23046875 13.19140625 C4.94722386 9.26918469 3.97604492 6.41526513 1.75 3.1875 C-9.08240745 -4.1630622 -29.3632301 15.45733161 -35.51953125 22.81640625 Z " fill="#264698" transform="translate(280,0)"/>
<path d="M0 0 C10.23 0 20.46 0 31 0 C31 3.96 31 7.92 31 12 C32.62765632 17.28988305 33.4963433 18.62225748 38 22 C24.47 22 10.94 22 -3 22 C-1.68 21.34 -0.36 20.68 1 20 C0.67 18.02 0.34 16.04 0 14 C0 9.38 0 4.76 0 0 Z " fill="#FCFDFE" transform="translate(23,56)"/>
<path d="M0 0 C1.97265625 0.265625 1.97265625 0.265625 4.97265625 2.265625 C5.49682617 4.42041016 5.49682617 4.42041016 5.703125 7.0546875 C5.78369141 7.99570312 5.86425781 8.93671875 5.94726562 9.90625 C6.01751953 10.89109375 6.08777344 11.8759375 6.16015625 12.890625 C6.28293945 14.37949219 6.28293945 14.37949219 6.40820312 15.8984375 C6.60885294 18.35344705 6.7964428 20.80876026 6.97265625 23.265625 C7.58753906 21.56792969 7.58753906 21.56792969 8.21484375 19.8359375 C8.7588241 18.35406 9.30311088 16.87229496 9.84765625 15.390625 C10.25177734 14.27107422 10.25177734 14.27107422 10.6640625 13.12890625 C12.74609375 7.4921875 12.74609375 7.4921875 14.97265625 5.265625 C18.67848755 4.85386597 21.02924292 4.66288871 24.22265625 6.703125 C27.54234045 11.56409116 29.54717693 17.32891132 28.97265625 23.265625 C29.63265625 23.265625 30.29265625 23.265625 30.97265625 23.265625 C31.31296875 21.3475 31.31296875 21.3475 31.66015625 19.390625 C33.06245873 13.06023093 35.6750174 5.37877949 40.97265625 1.265625 C44.50114215 0.54000895 47.86033404 0.65890379 51.03515625 2.390625 C52.45768 5.2356725 51.66661199 7.21147755 50.97265625 10.265625 C50.12101214 12.06863104 49.19893416 13.83944449 48.22265625 15.578125 C42.87952786 25.91759219 39.8154593 37.28552415 38.625 48.84765625 C37.78433861 51.96364067 36.46540389 53.26227919 33.97265625 55.265625 C30.97265625 55.828125 30.97265625 55.828125 27.97265625 55.265625 C24.47179875 51.63635767 22.93214372 48.00886492 21.34765625 43.265625 C19.97873997 39.21991065 18.60294042 35.21420317 16.97265625 31.265625 C14.53770825 37.32468164 12.54907106 42.82035123 12.34375 49.390625 C11.85537652 51.85819629 10.92518971 52.72293936 8.97265625 54.265625 C6.03515625 55.203125 6.03515625 55.203125 2.97265625 55.265625 C-5.55828592 48.46349119 -6.4783499 32.99936024 -7.78857422 22.66650391 C-8.19950392 18.53451756 -8.31809328 14.41620016 -8.33984375 10.265625 C-8.34532227 9.49387939 -8.35080078 8.72213379 -8.35644531 7.92700195 C-8.26554918 0.98990289 -6.88800671 0.05149912 0 0 Z M-6.02734375 3.265625 C-7.03054192 19.336088 -4.45778127 35.09557686 0.97265625 50.265625 C2.81149506 52.55291234 2.81149506 52.55291234 5.59765625 52.390625 C6.77328125 52.32875 6.77328125 52.32875 7.97265625 52.265625 C9.8159921 46.85327718 11.53136771 41.43640361 13.03125 35.91796875 C14.35096236 32.19977501 16.15405114 28.76152651 17.97265625 25.265625 C18.12822998 25.82958984 18.28380371 26.39355469 18.4440918 26.97460938 C19.16966139 29.57547681 19.91475115 32.17037596 20.66015625 34.765625 C20.90443359 35.6525 21.14871094 36.539375 21.40039062 37.453125 C23.1222874 43.38168098 25.40459563 48.22416837 28.97265625 53.265625 C32.90341269 52.69109754 32.90341269 52.69109754 35.97265625 50.265625 C36.29218575 48.44312342 36.52750682 46.60560538 36.72265625 44.765625 C38.44261019 32.64532457 42.40509852 20.79334773 48.96875 10.4296875 C50.17917314 8.32093616 50.17917314 8.32093616 49.6953125 6.0390625 C49.10939886 4.27303677 49.10939886 4.27303677 47.97265625 3.265625 C45.18983094 2.42810075 45.18983094 2.42810075 41.97265625 3.265625 C36.76341998 8.57503889 34.77831567 15.24627347 32.97265625 22.265625 C32.58078125 23.379375 32.18890625 24.493125 31.78515625 25.640625 C30.77553376 28.44450418 30.77553376 28.44450418 30.97265625 32.265625 C30.31265625 31.935625 29.65265625 31.605625 28.97265625 31.265625 C28.44189453 29.37963867 28.44189453 29.37963867 28.04296875 26.93359375 C27.80900391 25.61198242 27.80900391 25.61198242 27.5703125 24.26367188 C27.25733832 22.40263943 26.94996591 20.54065552 26.6484375 18.67773438 C25.7002228 13.30898277 25.7002228 13.30898277 23.01171875 8.64453125 C20.49479185 6.94247149 18.95165557 6.93462508 15.97265625 7.265625 C12.82007626 13.22049832 10.36603425 19.28843541 8.0234375 25.60546875 C6.97265625 28.265625 6.97265625 28.265625 5.97265625 29.265625 C4.71904229 21.71959921 3.72131144 14.27149171 3.31640625 6.62890625 C3.18624858 4.0805757 3.18624858 4.0805757 0.97265625 2.265625 C-2.82746234 1.74769872 -2.82746234 1.74769872 -6.02734375 3.265625 Z " fill="#264799" transform="translate(413.02734375,21.734375)"/>
<path d="M0 0 C3.70390021 2.02666238 5.65363011 3.48044516 8 7 C8.95822812 14.28253373 8.68264512 20.7681416 4.609375 27.00390625 C-0.55400315 33.40799905 -6.33406877 37.143021 -14 40 C-13.67 40.99 -13.34 41.98 -13 43 C-7.90368269 43.29978337 -5.13103793 43.01858519 -1 40 C0.89825551 37.44620286 2.50670434 34.80144733 4.15625 32.08203125 C6 30 6 30 8.60546875 29.6328125 C11 30 11 30 12.8125 31.0625 C14.68725599 34.12131241 14.35759568 36.48364244 14 40 C11.68785109 46.93644674 6.03417145 50.81257407 0.3125 54.9375 C-5.90917715 56.93313229 -12.61617947 57.40469582 -18.73828125 54.86328125 C-23.47796247 51.90776808 -25.89981962 49.26965993 -28 44 C-28.96287103 35.94775501 -28.34597101 28.39560115 -25 21 C-24.70996094 20.32582031 -24.41992188 19.65164062 -24.12109375 18.95703125 C-19.60553138 9.18905742 -12.19412637 -2.0323544 0 0 Z M-15 8 C-23.36566254 18.93636093 -27.67837503 30.16723877 -26 44 C-24.50888072 48.02219869 -21.6667272 50.82288073 -18 53 C-11.57273198 54.8959096 -5.93810874 54.7554648 0.1875 51.9375 C5.40714365 49.09189988 9.32878498 45.34243004 12 40 C12.25 37 12.25 37 12 34 C11.34 33.34 10.68 32.68 10 32 C8.00224954 31.95024468 8.00224954 31.95024468 6 33 C4.13531254 35.23244632 4.13531254 35.23244632 2.5 37.9375 C-1.13372567 43.67713487 -1.13372567 43.67713487 -5 45 C-8.04978153 45.45456016 -10.95134873 45.48014811 -14 45 C-16.47240468 42.75938325 -16.94309843 41.17070471 -18 38 C-16.824375 37.938125 -16.824375 37.938125 -15.625 37.875 C-7.5934831 35.93635799 -0.47037239 30.99250817 4 24 C6.51074142 18.74475848 6.72313936 13.73346208 6 8 C4.19881522 4.99802536 3.09667268 3.54833634 0 2 C-6.28837829 0.92637444 -10.56077794 3.85322669 -15 8 Z " fill="#264799" transform="translate(562,21)"/>
<path d="M0 0 C1.78125 1.3046875 1.78125 1.3046875 3 3 C3.36248449 6.38318857 3.58433618 8.86784865 2 11.9375 C-1.26642246 13.67278693 -4.34351452 13.17982715 -8 13 C-8.66 14.32 -9.32 15.64 -10 17 C-9.39671875 17.03738281 -8.7934375 17.07476563 -8.171875 17.11328125 C-4.60516547 17.40667187 -1.67761513 17.66945604 1.5625 19.25 C3 21 3 21 3.25 23.6875 C3.1675 24.450625 3.085 25.21375 3 26 C2.401875 25.195625 1.80375 24.39125 1.1875 23.5625 C-2.61924313 19.64509573 -7.84652934 20.09927877 -13 20 C-12.70099803 16.71097835 -12.27533915 14.43595366 -10.5 11.625 C-6.78617515 9.21101385 -3.30940418 9.66850737 1 10 C0.34 7.69 -0.32 5.38 -1 3 C-5.50902727 2.8231754 -9.0427223 2.70894449 -13 5 C-16.6208112 8.53249873 -18.23805522 11.41598011 -19.875 16.1875 C-21.50852294 20.70489678 -21.50852294 20.70489678 -23.76953125 22.0625 C-24.71892578 22.371875 -24.71892578 22.371875 -25.6875 22.6875 C-26.780625 23.120625 -27.87375 23.55375 -29 24 C-30.0615942 27.58863524 -30.0615942 27.58863524 -30 31 C-26.535 30.505 -26.535 30.505 -23 30 C-23.00523682 31.13542236 -23.01047363 32.27084473 -23.01586914 33.44067383 C-23.03396038 37.65062676 -23.04544714 41.86057624 -23.05493164 46.07055664 C-23.0599624 47.89315366 -23.06678769 49.71574665 -23.07543945 51.53833008 C-23.08755997 54.15707394 -23.09324086 56.77576447 -23.09765625 59.39453125 C-23.10281754 60.21025101 -23.10797882 61.02597076 -23.11329651 61.8664093 C-23.1136246 65.17013929 -23.05225621 67.84323138 -22 71 C-20.02 71 -18.04 71 -16 71 C-16.01047363 70.0527002 -16.02094727 69.10540039 -16.03173828 68.12939453 C-16.06609637 64.56963603 -16.09103202 61.01005719 -16.10986328 57.45019531 C-16.11983806 55.91794022 -16.13342276 54.38570375 -16.15087891 52.85351562 C-16.24540092 44.33541438 -16.1010179 36.32135434 -14 28 C-9.38 28 -4.76 28 0 28 C0 28.33 0 28.66 0 29 C-6.435 29.495 -6.435 29.495 -13 30 C-13.02489563 34.5532187 -13.04295187 39.10639693 -13.05493164 43.65966797 C-13.05993092 45.20557344 -13.06673253 46.75147425 -13.07543945 48.29736328 C-13.08769956 50.53158728 -13.09327249 52.76574826 -13.09765625 55 C-13.10281754 55.68054443 -13.10797882 56.36108887 -13.11329651 57.06225586 C-13.11369599 60.55342464 -12.91561395 63.92372997 -12.43139648 67.375 C-12 71 -12 71 -13 73 C-16.15621991 74.57810996 -18.53391214 74.42565991 -22 74 C-24.19604492 72.42138672 -24.19604492 72.42138672 -26 70 C-26.4699707 66.70361328 -26.4699707 66.70361328 -26.42578125 62.8203125 C-26.42249313 62.12992889 -26.41920502 61.43954529 -26.41581726 60.72824097 C-26.40010599 58.52651797 -26.35610258 56.32632785 -26.3125 54.125 C-26.30100256 52.65235625 -26.2912192 51.17969806 -26.28320312 49.70703125 C-26.22653228 43.71412096 -26.13042772 37.90644214 -25 32 C-25.763125 32.226875 -26.52625 32.45375 -27.3125 32.6875 C-30 33 -30 33 -31.875 32 C-33.68973484 28.77380472 -32.93056115 26.47409497 -32 23 C-30.08036885 21.08036885 -28.50284053 20.19295044 -25.984375 19.2265625 C-23.33049778 17.58617382 -23.01652566 16.11991989 -22.0625 13.1875 C-20.42067191 8.73660666 -18.76640724 6.03149851 -15 3 C-13.9171875 2.1028125 -13.9171875 2.1028125 -12.8125 1.1875 C-8.67279363 -0.56037602 -4.42832475 -0.76557479 0 0 Z " fill="#214698" transform="translate(361,3)"/>
<path d="M0 0 C4.10721826 2.89372196 6.06475729 6.3130538 7.3515625 11.24145508 C7.82301971 14.43159108 7.84431508 17.4741863 7.8125 20.69921875 C7.80476563 21.98248047 7.79703125 23.26574219 7.7890625 24.58789062 C7.77662194 25.93359924 7.76359454 27.27930255 7.75 28.625 C7.7234421 31.27478278 7.70351954 33.92431959 7.6875 36.57421875 C7.67589844 37.74686279 7.66429687 38.91950684 7.65234375 40.12768555 C7.5533871 42.8908378 7.5533871 42.8908378 8.75 44.9375 C9.125 47.8125 9.125 47.8125 8.75 50.9375 C6.01513033 53.99411905 4.54836847 54.87724578 0.4375 55.1875 C-0.449375 55.105 -1.33625 55.0225 -2.25 54.9375 C-2.91 53.6175 -3.57 52.2975 -4.25 50.9375 C-5.384375 51.4325 -6.51875 51.9275 -7.6875 52.4375 C-12.25556437 54.12727956 -16.41836718 54.75171961 -21.25 53.9375 C-25.23539093 51.871001 -27.87476202 49.72705348 -30.25 45.9375 C-31.15469213 41.42105249 -31.13590292 36.93859836 -29.25390625 32.6875 C-24.6626106 26.02817034 -17.50357754 20.4975826 -9.625 18.5 C-8.51125 18.314375 -7.3975 18.12875 -6.25 17.9375 C-6.25 15.9575 -6.25 13.9775 -6.25 11.9375 C-8.54191849 11.90497064 -8.54191849 11.90497064 -11.25 12.9375 C-12.79311722 14.573708 -12.79311722 14.573708 -14.25 16.5 C-16.93740974 19.85753505 -16.93740974 19.85753505 -19.9375 20.625 C-22.25 19.9375 -22.25 19.9375 -24.125 18.3125 C-25.69663887 14.99459572 -25.36497202 13.42178757 -24.25 9.9375 C-18.3072548 1.11342379 -10.54472269 -3.44731319 0 0 Z M-20.74609375 8.53125 C-22.47711969 10.87921598 -23.30941232 12.37308298 -23 15.3125 C-22.7525 15.84875 -22.505 16.385 -22.25 16.9375 C-20.93 17.2675 -19.61 17.5975 -18.25 17.9375 C-17.89808594 17.44378906 -17.54617188 16.95007813 -17.18359375 16.44140625 C-14.37384194 12.79533145 -13.02903937 11.1418382 -8.4375 9.9375 C-7.385625 9.9375 -6.33375 9.9375 -5.25 9.9375 C-3.66727399 11.52022601 -3.90264253 13.31784003 -3.6875 15.5 C-3.56181641 16.73943359 -3.56181641 16.73943359 -3.43359375 18.00390625 C-3.37300781 18.64199219 -3.31242187 19.28007813 -3.25 19.9375 C-3.85585938 20.00066406 -4.46171875 20.06382813 -5.0859375 20.12890625 C-13.73245313 21.39262776 -19.95054134 25.31614294 -25.8125 31.75 C-28.66827456 36.09574389 -29.02522803 39.80376773 -28.25 44.9375 C-26.6487342 48.03755059 -24.59694001 50.308928 -21.375 51.8125 C-20.67375 51.85375 -19.9725 51.895 -19.25 51.9375 C-18.198125 52.040625 -17.14625 52.14375 -16.0625 52.25 C-11.20266949 51.85165324 -7.55571558 50.12453013 -3.25 47.9375 C-2.59 49.5875 -1.93 51.2375 -1.25 52.9375 C1.44027121 53.1556301 3.21618158 53.22220316 5.625 51.9375 C7.12718217 49.26695392 6.41852817 47.48351772 5.99902344 44.55029297 C5.69779366 41.38974294 5.73499313 38.30328751 5.79296875 35.12890625 C5.81423828 33.88689453 5.83550781 32.64488281 5.85742188 31.36523438 C5.91073199 28.79204632 5.97580441 26.21907461 6.05273438 23.64648438 C6.15552239 16.30285164 5.88701584 10.20671275 1.75 3.9375 C-1.05548849 1.43530757 -2.81015927 1.01362628 -6.5 0.375 C-12.32781114 1.24917167 -16.72832241 4.25122204 -20.74609375 8.53125 Z " fill="#264698" transform="translate(491.25,22.0625)"/>
<path d="M0 0 C1.97265625 0.36328125 1.97265625 0.36328125 3.71484375 1.49609375 C5.53952767 4.20478603 5.26422452 6.32466477 5.16015625 9.55078125 C5.13308594 10.63746094 5.10601562 11.72414063 5.078125 12.84375 C5.04332031 13.67519531 5.00851562 14.50664062 4.97265625 15.36328125 C5.61074219 15.35167969 6.24882812 15.34007812 6.90625 15.328125 C7.73253906 15.31910156 8.55882812 15.31007813 9.41015625 15.30078125 C10.23386719 15.28917969 11.05757813 15.27757812 11.90625 15.265625 C13.97265625 15.36328125 13.97265625 15.36328125 14.97265625 16.36328125 C15.07124228 17.81887495 15.10237768 19.27936044 15.09765625 20.73828125 C15.10152344 21.92550781 15.10152344 21.92550781 15.10546875 23.13671875 C14.97265625 25.36328125 14.97265625 25.36328125 13.97265625 28.36328125 C10.67265625 28.36328125 7.37265625 28.36328125 3.97265625 28.36328125 C3.9475939 32.29190072 3.92962826 36.22048804 3.91772461 40.14916992 C3.91033185 42.12876017 3.89761351 44.10832826 3.88476562 46.08789062 C3.86750896 52.9042714 4.04449574 59.53457314 4.95141602 66.2956543 C4.95842529 66.97797119 4.96543457 67.66028809 4.97265625 68.36328125 C2.97265625 70.36328125 2.97265625 70.36328125 -0.40234375 70.73828125 C-4.02734375 70.36328125 -4.02734375 70.36328125 -6.33984375 68.73828125 C-10.36017034 63.08004382 -10.31482749 57.34219708 -10.21484375 50.67578125 C-10.20517578 49.34981934 -10.20517578 49.34981934 -10.1953125 47.99707031 C-10.12197831 41.75220558 -9.82355098 35.56232323 -9.02734375 29.36328125 C-9.95546875 29.42515625 -10.88359375 29.48703125 -11.83984375 29.55078125 C-15.02734375 29.36328125 -15.02734375 29.36328125 -16.7109375 28.140625 C-18.39777107 25.86314941 -18.36872412 24.54365865 -18.27734375 21.73828125 C-18.261875 20.94164063 -18.24640625 20.145 -18.23046875 19.32421875 C-18.02734375 17.36328125 -18.02734375 17.36328125 -17.02734375 16.36328125 C-15.50806337 16.29148161 -13.98566893 16.27936118 -12.46484375 16.30078125 C-11.63855469 16.30980469 -10.81226563 16.31882812 -9.9609375 16.328125 C-9.32285156 16.33972656 -8.68476563 16.35132813 -8.02734375 16.36328125 C-8.05054688 15.37585937 -8.07375 14.3884375 -8.09765625 13.37109375 C-8.11570312 12.08976562 -8.13375 10.8084375 -8.15234375 9.48828125 C-8.17554688 8.21210938 -8.19875 6.9359375 -8.22265625 5.62109375 C-7.8742251 -0.19073785 -5.20977217 0.12659259 0 0 Z M-6.02734375 3.36328125 C-6.10047942 5.89377527 -6.11981902 8.39632962 -6.08984375 10.92578125 C-6.08533203 11.63669922 -6.08082031 12.34761719 -6.07617188 13.08007812 C-6.06435239 14.84118138 -6.04641638 16.60224161 -6.02734375 18.36328125 C-9.32734375 18.36328125 -12.62734375 18.36328125 -16.02734375 18.36328125 C-16.19411657 21.77984149 -16.19411657 21.77984149 -16.02734375 25.36328125 C-14.071004 27.77449984 -14.071004 27.77449984 -10.40234375 27.48828125 C-9.28859375 27.44703125 -8.17484375 27.40578125 -7.02734375 27.36328125 C-7.0430542 28.39211426 -7.05876465 29.42094727 -7.07495117 30.48095703 C-7.12945709 34.31632588 -7.16376852 38.15166082 -7.19213867 41.98730469 C-7.2071784 43.64393888 -7.22761552 45.30053356 -7.25366211 46.95703125 C-7.2902589 49.34515155 -7.30711814 51.73274313 -7.3203125 54.12109375 C-7.33579636 54.85570831 -7.35128021 55.59032288 -7.36723328 56.34719849 C-7.36877339 61.10681893 -6.46016832 64.2833194 -4.02734375 68.36328125 C-2.04734375 68.36328125 -0.06734375 68.36328125 1.97265625 68.36328125 C2.868972 65.02723137 2.868972 65.02723137 2.50610352 61.66699219 C1.74358175 58.37401489 1.85026581 55.11418432 1.875 51.75390625 C1.87641495 51.02709656 1.8778299 50.30028687 1.87928772 49.55145264 C1.88486833 47.23868631 1.89741721 44.92601813 1.91015625 42.61328125 C1.91517376 41.04166807 1.91973623 39.47005336 1.92382812 37.8984375 C1.9348314 34.05334782 1.95208264 30.20833115 1.97265625 26.36328125 C5.27265625 26.36328125 8.57265625 26.36328125 11.97265625 26.36328125 C13.45097885 23.40663606 13.03298408 20.62098388 12.97265625 17.36328125 C9.67265625 17.36328125 6.37265625 17.36328125 2.97265625 17.36328125 C2.99585938 16.44804687 3.0190625 15.5328125 3.04296875 14.58984375 C3.06101562 13.40132812 3.0790625 12.2128125 3.09765625 10.98828125 C3.12085938 9.80492187 3.1440625 8.6215625 3.16796875 7.40234375 C3.30131854 4.25174308 3.30131854 4.25174308 0.97265625 2.36328125 C-2.82746234 1.84535497 -2.82746234 1.84535497 -6.02734375 3.36328125 Z " fill="#27539D" transform="translate(386.02734375,6.63671875)"/>
<path d="M0 0 C3.96 0 7.92 0 12 0 C11.34 0.66 10.68 1.32 10 2 C9.56984529 3.95908603 9.56984529 3.95908603 9.4375 6.234375 C9.3643457 7.10860107 9.29119141 7.98282715 9.21582031 8.88354492 C9.10898926 10.30244019 9.10898926 10.30244019 9 11.75 C8.91588867 12.71977783 8.83177734 13.68955566 8.74511719 14.6887207 C8.29968734 19.87163895 7.93166896 25.0522671 7.640625 30.24609375 C7.57488281 31.2422168 7.50914062 32.23833984 7.44140625 33.26464844 C7.31568633 35.18444294 7.213376 37.10594155 7.13671875 39.02832031 C7.07613281 39.8994043 7.01554688 40.77048828 6.953125 41.66796875 C6.91348633 42.43391357 6.87384766 43.1998584 6.83300781 43.98901367 C6 46 6 46 0 49 C0 32.83 0 16.66 0 0 Z " fill="#FCFCFD" transform="translate(0,0)"/>
<path d="M0 0 C0 0.33 0 0.66 0 1 C-0.969375 1.309375 -1.93875 1.61875 -2.9375 1.9375 C-5.84065792 2.69523342 -5.84065792 2.69523342 -7 4 C-7.10319834 5.38535206 -7.13849328 6.77586507 -7.14526367 8.16503906 C-7.15164352 9.04975891 -7.15802338 9.93447876 -7.16459656 10.8460083 C-7.16570938 11.80948181 -7.1668222 12.77295532 -7.16796875 13.765625 C-7.17129715 14.75117371 -7.17462555 15.73672241 -7.17805481 16.75213623 C-7.18312983 18.84370455 -7.18546296 20.935281 -7.18530273 23.02685547 C-7.18748123 26.22246775 -7.2056088 29.4177305 -7.22460938 32.61328125 C-7.22754479 34.64322798 -7.2295286 36.67317636 -7.23046875 38.703125 C-7.23765427 39.65850159 -7.24483978 40.61387817 -7.25224304 41.59820557 C-7.23659279 46.16275149 -7.19508335 49.86539169 -5 54 C-3.02 54 -1.04 54 1 54 C0.97905273 53.39115967 0.95810547 52.78231934 0.93652344 52.1550293 C0.19390806 27.3126648 0.19390806 27.3126648 6.5078125 19.01953125 C8.98717681 16.4998052 10.81657079 15.12416306 14.3828125 14.75 C16.8125 14.8125 16.8125 14.8125 19.08203125 15.08203125 C19.71496094 15.05496094 20.34789062 15.02789062 21 15 C23.29013653 11.5647952 23.17842973 10.014669 23 6 C14.8913496 5.2152919 10.58935769 7.40885908 4 12 C3.01 12.66 2.02 13.32 1 14 C1 10.37 1 6.74 1 3 C1.66 3.33 2.32 3.66 3 4 C3 5.65 3 7.3 3 9 C3.6290625 8.566875 4.258125 8.13375 4.90625 7.6875 C10.60107513 3.98243305 14.18990762 2.06067691 21 3 C23.81009519 4.00875212 24.66697708 4.33395417 26 7 C26.52981019 10.97357645 26.31881474 12.54170381 24 15.875 C20.44684945 18.39181497 19.05671965 18.17461442 14.921875 17.94921875 C12.77434274 17.87023705 12.77434274 17.87023705 10.25 19.375 C3.99723539 26.66989205 3.50503014 34.77002678 3.9375 44 C4.0226537 46.0411468 4.09495095 48.08288406 4.15234375 50.125 C4.19351318 51.01445313 4.23468262 51.90390625 4.27709961 52.8203125 C4.18565674 53.53960937 4.09421387 54.25890625 4 55 C0.29584707 57.46943529 -1.62144505 57.46913089 -6 57 C-8.7010569 54.38897833 -9.89045724 51.65737584 -10.14044189 47.87512207 C-10.1472699 47.05588257 -10.1540979 46.23664307 -10.16113281 45.39257812 C-10.17074036 44.46151245 -10.1803479 43.53044678 -10.19024658 42.57116699 C-10.19449646 41.56799438 -10.19874634 40.56482178 -10.203125 39.53125 C-10.20882507 38.49939575 -10.21452515 37.4675415 -10.22039795 36.40441895 C-10.2298447 34.22225978 -10.23638064 32.04008637 -10.24023438 29.85791016 C-10.24996191 26.51309554 -10.28099758 23.1688897 -10.3125 19.82421875 C-10.31902791 17.70573282 -10.32427921 15.58724249 -10.328125 13.46875 C-10.3404718 12.46557739 -10.3528186 11.46240479 -10.36553955 10.42883301 C-10.36253845 9.49776733 -10.35953735 8.56670166 -10.35644531 7.60742188 C-10.36009094 6.78818237 -10.36373657 5.96894287 -10.36749268 5.12487793 C-9.35141912 -0.75015694 -5.0842963 -0.28779036 0 0 Z " fill="#1E3D94" transform="translate(513,20)"/>
<path d="M0 0 C3.25536001 6.51072001 1.31926891 17.09432454 -0.8125 23.75 C-2.03798898 27.18700358 -3.09198147 29.71832392 -6 32 C-8.5625 32.375 -8.5625 32.375 -11 32 C-14.49375345 26.75936983 -13.55268799 20.28826134 -12.53515625 14.234375 C-10.759611 7.38434243 -7.80101583 0 0 0 Z " fill="#F8F9FB" transform="translate(313,33)"/>
<path d="M0 0 C0.75087891 -0.00708984 1.50175781 -0.01417969 2.27539062 -0.02148438 C6.8317741 0.03061148 9.88517463 0.49018171 13.5625 3.4375 C20.03512874 11.64250879 19.24215912 22.12837895 18.32421875 32 C16.93286194 39.6454354 13.34396842 48.48960323 7.375 53.625 C2.03378502 57.06711632 -3.2460352 57.17354826 -9.4375 56.4375 C-13.98321305 54.73389639 -16.60981988 51.71575189 -18.875 47.5 C-23.45599789 35.48231723 -19.86836884 21.38415029 -15.421875 9.7890625 C-11.77871319 2.01120117 -8.50082118 -0.22504309 0 0 Z M-9.0625 3.58984375 C-16.41335572 13.13342632 -19.40438898 26.39615328 -18.92578125 38.265625 C-17.98384285 44.38445682 -15.69716085 49.30337586 -11.1875 53.5625 C-5.88291183 55.25032351 -0.73750684 55.43308207 4.3125 52.875 C12.09335306 47.66380511 14.79837117 39.25814416 16.5625 30.4375 C17.71768878 21.15050986 17.4637524 12.18393273 11.5625 4.4375 C8.56511059 2.43924039 7.92902492 2.16199602 4.5625 2.1875 C3.881875 2.18234375 3.20125 2.1771875 2.5 2.171875 C0.23833993 2.33832397 0.23833993 2.33832397 -2.4375 4.4375 C-2.4375 3.7775 -2.4375 3.1175 -2.4375 2.4375 C-5.96905037 2.1119299 -5.96905037 2.1119299 -9.0625 3.58984375 Z " fill="#254698" transform="translate(308.4375,20.5625)"/>
<path d="M0 0 C0.77628032 8.88409704 0.77628032 8.88409704 -2 12.875 C-7.85151247 17.01982133 -12.56554596 19.89213448 -20 19 C-22 17 -22 17 -22.125 13.8125 C-20.54321021 8.45199016 -17.56585144 6.05706662 -13 3 C-8.7060869 0.77440035 -4.83657667 -0.14200657 0 0 Z " fill="#F2F4F9" transform="translate(213,43)"/>
<path d="M0 0 C0.61783483 8.83847052 0.61783483 8.83847052 -1.5625 12.9375 C-6.75463924 17.33084858 -11.58188073 18.33731768 -18.1796875 18.203125 C-20 18 -20 18 -21 17 C-20.69481324 11.71009619 -19.81542817 8.71502217 -16 5 C-10.65178636 1.30600128 -6.39537756 -0.0419369 0 0 Z " fill="#FAFAFC" transform="translate(111,43)"/>
<path d="M0 0 C1.97265625 0.36328125 1.97265625 0.36328125 3.71484375 1.49609375 C5.53952767 4.20478603 5.26422452 6.32466477 5.16015625 9.55078125 C5.13308594 10.63746094 5.10601562 11.72414063 5.078125 12.84375 C5.04332031 13.67519531 5.00851562 14.50664062 4.97265625 15.36328125 C5.61074219 15.35167969 6.24882812 15.34007812 6.90625 15.328125 C8.14568359 15.31458984 8.14568359 15.31458984 9.41015625 15.30078125 C10.23386719 15.28917969 11.05757813 15.27757812 11.90625 15.265625 C13.97265625 15.36328125 13.97265625 15.36328125 14.97265625 16.36328125 C15.07124228 17.81887495 15.10237768 19.27936044 15.09765625 20.73828125 C15.10152344 21.92550781 15.10152344 21.92550781 15.10546875 23.13671875 C14.97265625 25.36328125 14.97265625 25.36328125 13.97265625 28.36328125 C10.67265625 28.36328125 7.37265625 28.36328125 3.97265625 28.36328125 C3.97265625 38.59328125 3.97265625 48.82328125 3.97265625 59.36328125 C2.98265625 59.36328125 1.99265625 59.36328125 0.97265625 59.36328125 C0.87345334 48.30766833 0.8474513 37.37421538 1.97265625 26.36328125 C5.27265625 26.36328125 8.57265625 26.36328125 11.97265625 26.36328125 C12.30265625 23.39328125 12.63265625 20.42328125 12.97265625 17.36328125 C9.67265625 17.36328125 6.37265625 17.36328125 2.97265625 17.36328125 C2.91207031 16.43644531 2.85148437 15.50960938 2.7890625 14.5546875 C2.70527344 13.35714844 2.62148438 12.15960938 2.53515625 10.92578125 C2.45394531 9.73082031 2.37273437 8.53585937 2.2890625 7.3046875 C2.29609511 4.47757881 2.29609511 4.47757881 0.97265625 3.36328125 C-1.00734375 3.36328125 -2.98734375 3.36328125 -5.02734375 3.36328125 C-5.35734375 7.65328125 -5.68734375 11.94328125 -6.02734375 16.36328125 C-7.91582721 12.58631433 -8.30126108 11.24443354 -8.27734375 7.23828125 C-8.28507812 5.93503906 -8.28507812 5.93503906 -8.29296875 4.60546875 C-7.69723579 -0.42321828 -4.29923438 0.10446738 0 0 Z " fill="#1E4296" transform="translate(386.02734375,6.63671875)"/>
<path d="M0 0 C3.5 0.3125 3.5 0.3125 7 1 C10.12432996 7.24865993 8.59903484 19.09649858 6.8125 25.6875 C5.22386813 30.01005649 3.50540078 32.97260842 0 36 C-3.625 36.6875 -3.625 36.6875 -7 36 C-11.08516724 30.66369106 -10.67734373 25.43476541 -10 19 C-8.50784386 11.82000137 -7.00708895 5.54590515 -1 1 C-0.67 0.67 -0.34 0.34 0 0 Z M-0.59765625 3.1796875 C-7.16806099 10.78383592 -8.33930735 18.58375336 -8.30078125 28.43359375 C-8.16893897 31.23850776 -8.16893897 31.23850776 -6 34 C-3.58655333 34.66743877 -3.58655333 34.66743877 -1 34 C3.4570759 30.06728597 5.00440754 24.69537452 6 19 C6.84878145 10.25410316 6.84878145 10.25410316 5 2 C1.2053093 1.60399742 1.2053093 1.60399742 -0.59765625 3.1796875 Z " fill="#1E4396" transform="translate(308,31)"/>
<path d="M0 0 C0.99 0.495 0.99 0.495 2 1 C2 2.65 2 4.3 2 6 C2.6290625 5.566875 3.258125 5.13375 3.90625 4.6875 C9.60107513 0.98243305 13.18990762 -0.93932309 20 0 C22.81009519 1.00875212 23.66697708 1.33395417 25 4 C25.52981019 7.97357645 25.31881474 9.54170381 23 12.875 C19.4499592 15.38961224 18.05824143 15.18266099 13.92578125 14.94140625 C11.75232991 14.86504475 11.75232991 14.86504475 9.1875 16.5 C6.28867932 19.81293792 5.3259776 22.81270231 4 27 C2 24 2 24 2.4375 21.1875 C4.49203817 16.99624213 6.85311831 14.22154376 11 12 C13.46455472 11.72213354 15.6222392 11.78990448 18.08203125 12.08203125 C18.71496094 12.05496094 19.34789062 12.02789062 20 12 C22.29013653 8.5647952 22.17842973 7.014669 22 3 C13.8913496 2.2152919 9.58935769 4.40885908 3 9 C2.01 9.66 1.02 10.32 0 11 C0 7.37 0 3.74 0 0 Z " fill="#2C4B9B" transform="translate(514,23)"/>
<path d="M0 0 C1.65 0.99 3.3 1.98 5 3 C5.6015625 5.92578125 5.6015625 5.92578125 5.625 9.3125 C5.90331137 16.26255344 7.01193995 20.01193995 12 25 C8.04 25 4.08 25 0 25 C0 16.75 0 8.5 0 0 Z " fill="#FAFBFD" transform="translate(0,53)"/>
<path d="M0 0 C0.75152344 0.07863281 1.50304687 0.15726563 2.27734375 0.23828125 C2.78836942 5.60405082 1.66596973 8.08721442 -1.72265625 12.23828125 C-8.92812719 19.41422157 -8.92812719 19.41422157 -13.72265625 20.23828125 C-7.83870697 0.68602744 -7.83870697 0.68602744 0 0 Z " fill="#1F4396" transform="translate(558.72265625,30.76171875)"/>
<path d="M0 0 C0.48837209 5.37209302 0.48837209 5.37209302 -1.75 8.25 C-5.5 11.16666667 -5.5 11.16666667 -8 12 C-10.75 11.625 -10.75 11.625 -13 11 C-12.70985788 7.51829452 -12.27243676 6.25771045 -9.6875 3.8125 C-4.03448276 0 -4.03448276 0 0 0 Z " fill="#EDEFF6" transform="translate(486,52)"/>
<path d="M0 0 C0.78223081 7.97875423 0.78223081 7.97875423 -2.25 11.9375 C-6.72060523 15.29045392 -9.2865782 16.49681929 -15 16 C-17 14 -17 14 -17.375 11.6875 C-16.85761623 7.979583 -15.68058898 6.61357426 -13 4 C-8.83827146 1.32398248 -5.06622777 -0.63327847 0 0 Z M-9.0625 4.3125 C-9.75472656 4.74175781 -10.44695312 5.17101563 -11.16015625 5.61328125 C-13.26688617 7.04220002 -13.26688617 7.04220002 -15 10 C-14.69159401 12.15274948 -14.69159401 12.15274948 -14 14 C-9.62563349 13.49135273 -6.59903281 12.57073772 -3 10 C-1.64560332 7.29120665 -1.93498549 4.99066732 -2 2 C-5.33762623 2 -6.30885688 2.56766819 -9.0625 4.3125 Z " fill="#1F4296" transform="translate(488,50)"/>
<path d="M0 0 C5.3820598 -0.35880399 5.3820598 -0.35880399 7.9375 1.125 C9.54681635 3.96497003 8.71600055 5.87460077 8 9 C6.765625 11.68359375 6.765625 11.68359375 5.25 14.4375 C1.63630004 21.37685137 -0.69987124 28.55002543 -3 36 C-3.66 35.67 -4.32 35.34 -5 35 C-3.49060403 26.69832217 -0.66397155 19.76106126 3.39453125 12.43359375 C5.44748013 8.85426623 5.44748013 8.85426623 5.75683594 4.86132812 C5.12199882 2.70663205 5.12199882 2.70663205 2.4375 1.75 C1.633125 1.5025 0.82875 1.255 0 1 C0 0.67 0 0.34 0 0 Z " fill="#214397" transform="translate(456,23)"/>
<path d="M0 0 C4.62 0 9.24 0 14 0 C14 0.33 14 0.66 14 1 C7.565 1.495 7.565 1.495 1 2 C1.04125 3.423125 1.0825 4.84625 1.125 6.3125 C1.14760152 14.92367908 -0.00867234 23.45865007 -1 32 C-1.33 32 -1.66 32 -2 32 C-2.05898369 28.54174064 -2.09392131 25.0836138 -2.125 21.625 C-2.14175781 20.65949219 -2.15851563 19.69398437 -2.17578125 18.69921875 C-2.21953751 12.17953609 -1.47513771 6.35354587 0 0 Z " fill="#1F4195" transform="translate(347,31)"/>
<path d="M0 0 C0 1.98 0 3.96 0 6 C-1.6037331 6.64690922 -3.20800306 7.29248764 -4.8125 7.9375 C-5.70582031 8.29714844 -6.59914063 8.65679687 -7.51953125 9.02734375 C-9.3270909 9.73613486 -11.15807409 10.3860247 -13 11 C-11.50948318 6.39294801 -9.21457741 3.53603516 -6 0 C-3.50907189 -1.24546405 -2.58919267 -0.7767578 0 0 Z " fill="#EDF0F6" transform="translate(486,34)"/>
<path d="M0 0 C0.99 0 1.98 0 3 0 C3.27714844 0.99902344 3.55429687 1.99804688 3.83984375 3.02734375 C4.20555549 4.33077791 4.57145038 5.63416069 4.9375 6.9375 C5.11990234 7.59685547 5.30230469 8.25621094 5.49023438 8.93554688 C6.22596101 12.23821173 6.22596101 12.23821173 8 15 C10.41482413 15.50059916 10.41482413 15.50059916 13 15 C14.78969026 12.57327433 14.78969026 12.57327433 16 10 C16.33 10 16.66 10 17 10 C16.75 13.375 16.75 13.375 16 17 C13.67264764 18.99487345 12.47475877 19.03473845 9.4375 18.8125 C6.66174927 17.88724976 5.81272914 17.27068177 4 15 C2.83203125 11.93359375 2.83203125 11.93359375 1.8125 8.4375 C1.46832031 7.28121094 1.12414062 6.12492187 0.76953125 4.93359375 C0 2 0 2 0 0 Z " fill="#294F9C" transform="translate(408,58)"/>
<path d="M0 0 C2.33944736 0.28730055 4.6739143 0.61936779 7 1 C8.5111995 6.03733166 7.64599773 10.88171027 7 16 C6.67 16 6.34 16 6 16 C5.67 11.38 5.34 6.76 5 2 C-0.04376242 4.01750497 -1.23640564 4.61636757 -4 9 C-4.87357524 11.66020936 -5.43997504 14.24654397 -6 17 C-6.99 16.67 -7.98 16.34 -9 16 C-7.46819108 9.58632851 -6.18155204 5.22705561 -1 1 C-0.67 0.67 -0.34 0.34 0 0 Z " fill="#2E4F9D" transform="translate(308,31)"/>
<path d="M0 0 C0.33 0 0.66 0 1 0 C0.68614275 5.08665203 0.17685633 9.83627769 -1.4375 14.6875 C-3.59576662 21.29983646 -4.2193897 28.11226206 -5 35 C-5.33 35 -5.66 35 -6 35 C-6.69408201 22.66076425 -4.86261055 11.41180223 0 0 Z " fill="#34509E" transform="translate(294,28)"/>
<path d="M0 0 C0.928125 0.226875 1.85625 0.45375 2.8125 0.6875 C2.8125 1.0175 2.8125 1.3475 2.8125 1.6875 C1.42804688 2.01041016 1.42804688 2.01041016 0.015625 2.33984375 C-4.9096298 4.41205461 -5.77798403 7.81874675 -7.9296875 12.48828125 C-9.52722572 16.55158497 -10.47052264 20.38563587 -11.1875 24.6875 C-12.5075 24.3575 -13.8275 24.0275 -15.1875 23.6875 C-15.1875 23.0275 -15.1875 22.3675 -15.1875 21.6875 C-14.5275 21.6875 -13.8675 21.6875 -13.1875 21.6875 C-12.8471875 19.769375 -12.8471875 19.769375 -12.5 17.8125 C-11.09668781 11.47754782 -7.8685219 -0.77142372 0 0 Z " fill="#2B4B9B" transform="translate(457.1875,23.3125)"/>
<path d="M0 0 C2 3.75 2 3.75 2 6 C-1.3 6 -4.6 6 -8 6 C-7.81535634 10.34184202 -7.81535634 10.34184202 -6 14 C-3.67182036 14.36760731 -1.3381615 14.70241581 1 15 C0.34 16.32 -0.32 17.64 -1 19 C-1 18.34 -1 17.68 -1 17 C-1.928125 17.061875 -2.85625 17.12375 -3.8125 17.1875 C-7 17 -7 17 -8.68359375 15.77734375 C-10.37042732 13.49986816 -10.34138037 12.1803774 -10.25 9.375 C-10.23453125 8.57835937 -10.2190625 7.78171875 -10.203125 6.9609375 C-10 5 -10 5 -9 4 C-7.48071962 3.92820036 -5.95832518 3.91607993 -4.4375 3.9375 C-3.61121094 3.94652344 -2.78492188 3.95554687 -1.93359375 3.96484375 C-1.29550781 3.97644531 -0.65742188 3.98804688 0 4 C0 2.68 0 1.36 0 0 Z " fill="#2A489A" transform="translate(378,19)"/>
<path d="M0 0 C0.66 0.33 1.32 0.66 2 1 C2.4140625 3.06640625 2.4140625 3.06640625 2.625 5.5625 C2.69976562 6.38878906 2.77453125 7.21507812 2.8515625 8.06640625 C2.90054687 8.70449219 2.94953125 9.34257813 3 10 C2.01 9.01 1.02 8.02 0 7 C-0.33773438 8.03640625 -0.67546875 9.0728125 -1.0234375 10.140625 C-1.47379737 11.5104696 -1.92432714 12.88025834 -2.375 14.25 C-2.59671875 14.93191406 -2.8184375 15.61382812 -3.046875 16.31640625 C-4.15573613 19.6756032 -5.28878245 22.89741865 -7 26 C-7.61367781 16.59027359 -3.98037687 8.36485292 0 0 Z " fill="#1F4196" transform="translate(430,46)"/>
<path d="M0 0 C0.33 0 0.66 0 1 0 C1.17291697 10.7016389 0.63149942 21.32089373 0 32 C-0.66 32 -1.32 32 -2 32 C-2.38297872 10.46808511 -2.38297872 10.46808511 0 0 Z " fill="#3953A0" transform="translate(378,35)"/>
<path d="M0 0 C1 1 1 1 1.09765625 2.84765625 C1.06510417 4.8984375 1.03255208 6.94921875 1 9 C0.67 9 0.34 9 0 9 C-0.33 7.02 -0.66 5.04 -1 3 C-3.29191849 2.96747064 -3.29191849 2.96747064 -6 4 C-7.54311722 5.636208 -7.54311722 5.636208 -9 7.5625 C-11.66812431 10.94949718 -11.66812431 10.94949718 -14.875 11.4375 C-15.57625 11.293125 -16.2775 11.14875 -17 11 C-17 10.34 -17 9.68 -17 9 C-16.278125 8.79375 -15.55625 8.5875 -14.8125 8.375 C-11.0770355 6.54877291 -9.56412513 4.25713193 -7 1 C-4.51588385 -0.24205807 -2.74800896 -0.14092354 0 0 Z " fill="#244698" transform="translate(486,31)"/>
<path d="M0 0 C3.88921353 1.47521893 5.2490848 3.25940843 7 7 C7.20984775 9.85672736 7.28649823 12.47201222 7.1875 15.3125 C7.17396484 16.05306641 7.16042969 16.79363281 7.14648438 17.55664062 C7.11135979 19.37141075 7.05755972 21.18580288 7 23 C6.34 23.33 5.68 23.66 5 24 C4.95101563 22.97519531 4.90203125 21.95039063 4.8515625 20.89453125 C4.77648929 19.5338294 4.70094345 18.17315356 4.625 16.8125 C4.5940625 16.13896484 4.563125 15.46542969 4.53125 14.77148438 C4.19922043 9.09931254 2.5763729 4.96871916 0 0 Z " fill="#1C3F94" transform="translate(280,1)"/>
<path d="M0 0 C-2.94952958 1.49997444 -5.91489173 2.80023567 -9 4 C-9 3.34 -9 2.68 -9 2 C-13.19162145 2.95264124 -14.7207791 3.63260408 -17.375 7.125 C-17.91125 8.07375 -18.4475 9.0225 -19 10 C-19.8125 8.375 -19.8125 8.375 -20 6 C-16.12598556 -2.39369795 -7.973699 -0.54160974 0 0 Z " fill="#1F4497" transform="translate(315,21)"/>
<path d="M0 0 C0.66 0 1.32 0 2 0 C1.47616397 4.10457819 0.34834816 6.21510512 -2.4375 9.25 C-3.05496094 9.93578125 -3.67242188 10.6215625 -4.30859375 11.328125 C-6 13 -6 13 -8 14 C-6.62091009 8.48364034 -3.8578521 4.13041773 0 0 Z " fill="#E1E4F0" transform="translate(557,33)"/>
<path d="M0 0 C0 0.33 0 0.66 0 1 C-0.969375 1.309375 -1.93875 1.61875 -2.9375 1.9375 C-5.84065792 2.69523342 -5.84065792 2.69523342 -7 4 C-7.28528471 7.62266294 -7.44912228 11.24530434 -7.62109375 14.875 C-7.74613281 15.90625 -7.87117188 16.9375 -8 18 C-8.66 18.33 -9.32 18.66 -10 19 C-10.0809313 16.39521117 -10.14045434 13.79293347 -10.1875 11.1875 C-10.22520508 10.08051758 -10.22520508 10.08051758 -10.26367188 8.95117188 C-10.33730952 3.52653194 -10.33730952 3.52653194 -8.71875 1 C-5.91394983 -0.63188373 -3.15645947 -0.17866752 0 0 Z " fill="#2E4A9B" transform="translate(513,20)"/>
<path d="M0 0 C2 2 2 2 2.0625 4.4375 C1.711875 5.283125 1.36125 6.12875 1 7 C-0.155 7.474375 -1.31 7.94875 -2.5 8.4375 C-3.655 8.953125 -4.81 9.46875 -6 10 C-7.05749557 13.08369887 -7.05749557 13.08369887 -7 16 C-7.99 16 -8.98 16 -10 16 C-9.51020408 9.51020408 -9.51020408 9.51020408 -7.1875 7.1875 C-5 6 -5 6 -2.8125 5.0625 C-0.79253008 4.14026135 -0.79253008 4.14026135 -0.25 1.875 C-0.1675 1.25625 -0.085 0.6375 0 0 Z " fill="#3A55A1" transform="translate(338,17)"/>
<path d="M0 0 C0.33 0 0.66 0 1 0 C1.4513623 3.26702455 1.85502162 6.53821904 2.25 9.8125 C2.37890625 10.74126953 2.5078125 11.67003906 2.640625 12.62695312 C2.7953125 13.9659668 2.7953125 13.9659668 2.953125 15.33203125 C3.05786133 16.15421143 3.16259766 16.9763916 3.27050781 17.82348633 C3 20 3 20 1.00292969 21.79174805 C0.01147949 22.38983276 0.01147949 22.38983276 -1 23 C-1.09928082 15.24506486 -1.06059488 7.68931285 0 0 Z " fill="#3554A0" transform="translate(346,54)"/>
<path d="M0 0 C0.99 0.495 0.99 0.495 2 1 C2 2.65 2 4.3 2 6 C2.94875 5.34 3.8975 4.68 4.875 4 C8 2 8 2 10 2 C8.38048136 6.85855593 4.24470098 8.30969656 0 11 C0 7.37 0 3.74 0 0 Z " fill="#1E4797" transform="translate(514,23)"/>
<path d="M0 0 C1.91595968 -0.08133791 3.83291932 -0.13934367 5.75 -0.1875 C7.35101563 -0.23970703 7.35101563 -0.23970703 8.984375 -0.29296875 C12.32860393 0.03192396 13.66540011 0.62050396 16 3 C16.25 5.6875 16.25 5.6875 16 8 C15.1028125 6.7934375 15.1028125 6.7934375 14.1875 5.5625 C10.38075687 1.64509573 5.15347066 2.09927877 0 2 C0 1.34 0 0.68 0 0 Z " fill="#1E3C93" transform="translate(348,21)"/>
<path d="M0 0 C0.66 0.66 1.32 1.32 2 2 C1.81904109 4.71438364 0.94332065 6.08065907 -0.625 8.3125 C-3 10 -3 10 -6.75 9.75 C-8.35875 9.37875 -8.35875 9.37875 -10 9 C-10.33 8.01 -10.66 7.02 -11 6 C-9.906875 6.226875 -8.81375 6.45375 -7.6875 6.6875 C-4.15249233 7.36124843 -4.15249233 7.36124843 -2.125 5.8125 C-0.91964664 3.87054181 -0.3869869 2.24452405 0 0 Z " fill="#304F9D" transform="translate(284,23)"/>
<path d="M0 0 C1.66611905 -0.042721 3.33382885 -0.04063832 5 0 C6.56095477 1.56095477 6.16961928 3.09000895 6.1875 5.25 C6.15819716 8.92457661 5.71100294 11.6849318 4 15 C3.34 15 2.68 15 2 15 C2.33 10.71 2.66 6.42 3 2 C2.01 1.34 1.02 0.68 0 0 Z " fill="#204798" transform="translate(271,14)"/>
<path d="M0 0 C2.22550843 1.0715411 4.33170136 2.20412391 6.4375 3.5 C8.90357038 4.9435534 11.32573149 6.00670027 14 7 C14 7.66 14 8.32 14 9 C9.00232235 8.5240307 5.92949742 7.12573658 2 4 C0.625 1.75 0.625 1.75 0 0 Z " fill="#294799" transform="translate(238,68)"/>
<path d="M0 0 C0.33 0 0.66 0 1 0 C1 2.97 1 5.94 1 9 C-3.1196377 10.29243536 -6.66831683 11.26252625 -11 11 C-10.67 10.34 -10.34 9.68 -10 9 C-7.71484375 8.3671875 -7.71484375 8.3671875 -4.9375 7.875 C-4.01839844 7.70742188 -3.09929687 7.53984375 -2.15234375 7.3671875 C-1.44207031 7.24601562 -0.73179687 7.12484375 0 7 C0 4.69 0 2.38 0 0 Z " fill="#2A519D" transform="translate(487,33)"/>
<path d="M0 0 C0.33 0 0.66 0 1 0 C0.125 6.875 0.125 6.875 -1 8 C-2.68608966 8.07205511 -4.37500659 8.08386068 -6.0625 8.0625 C-6.98160156 8.05347656 -7.90070313 8.04445313 -8.84765625 8.03515625 C-9.55792969 8.02355469 -10.26820313 8.01195312 -11 8 C-10.34 7.01 -9.68 6.02 -9 5 C-5.375 4.8125 -5.375 4.8125 -2 5 C-1.855625 4.360625 -1.71125 3.72125 -1.5625 3.0625 C-1 1 -1 1 0 0 Z " fill="#4A73AE" transform="translate(364,25)"/>
<path d="M0 0 C0.66 0 1.32 0 2 0 C2 1.32 2 2.64 2 4 C2.99 3.67 3.98 3.34 5 3 C4.67 5.64 4.34 8.28 4 11 C3.01 10.67 2.02 10.34 1 10 C0.67 6.7 0.34 3.4 0 0 Z " fill="#1D3E94" transform="translate(440,43)"/>
<path d="M0 0 C1.65 0 3.3 0 5 0 C5.78774617 8.03501094 5.78774617 8.03501094 2.5 12.0625 C1.675 12.701875 0.85 13.34125 0 14 C-0.99 13.34 -1.98 12.68 -3 12 C-2.360625 11.71125 -1.72125 11.4225 -1.0625 11.125 C1.15206079 10.17176549 1.15206079 10.17176549 2 8 C2.66 8 3.32 8 4 8 C4 5.69 4 3.38 4 1 C2.68 0.67 1.36 0.34 0 0 Z " fill="#25529C" transform="translate(483,50)"/>
<path d="M0 0 C0.66 0 1.32 0 2 0 C2.33 0.99 2.66 1.98 3 3 C3.66 2.67 4.32 2.34 5 2 C4.25 7.75 4.25 7.75 2 10 C-0.09350689 6.5980513 -0.17942163 3.94727588 0 0 Z " fill="#1B3E94" transform="translate(417,42)"/>
<path d="M0 0 C0.66 0.33 1.32 0.66 2 1 C1.34 5.62 0.68 10.24 0 15 C-0.33 15 -0.66 15 -1 15 C-2.51708428 4.44191344 -2.51708428 4.44191344 0 0 Z " fill="#3B5BA3" transform="translate(451,58)"/>
<path d="M0 0 C0.99 0.33 1.98 0.66 3 1 C3.98248524 5.0527516 4.08159574 8.83861737 4 13 C3.34 13 2.68 13 2 13 C1.34 8.71 0.68 4.42 0 0 Z " fill="#334F9E" transform="translate(495,30)"/>
<path d="M0 0 C0 0.66 0 1.32 0 2 C-0.61488281 2.13277344 -1.22976563 2.26554688 -1.86328125 2.40234375 C-3.07564453 2.66724609 -3.07564453 2.66724609 -4.3125 2.9375 C-5.51326172 3.19853516 -5.51326172 3.19853516 -6.73828125 3.46484375 C-9.145401 3.99886159 -9.145401 3.99886159 -12 5 C-12 4.01 -12 3.02 -12 2 C-7.8794254 0.00214565 -4.54805635 -0.17835515 0 0 Z " fill="#3753A0" transform="translate(280,0)"/>
<path d="M0 0 C0.33 0 0.66 0 1 0 C0.75 3.375 0.75 3.375 0 7 C-2.82299691 9.23892859 -4.2791079 9 -8 9 C-8 8.34 -8 7.68 -8 7 C-7.236875 6.773125 -6.47375 6.54625 -5.6875 6.3125 C-2.44700291 4.72993166 -1.64845477 3.13206406 0 0 Z " fill="#405EA5" transform="translate(424,68)"/>
<path d="M0 0 C2.475 0.495 2.475 0.495 5 1 C6.5111995 6.03733166 5.64599773 10.88171027 5 16 C4.67 16 4.34 16 4 16 C3.96261719 15.18015625 3.92523438 14.3603125 3.88671875 13.515625 C3.82097656 12.43796875 3.75523437 11.3603125 3.6875 10.25 C3.62949219 9.18265625 3.57148438 8.1153125 3.51171875 7.015625 C2.96909846 3.8178932 2.14928855 2.37401309 0 0 Z " fill="#445FA6" transform="translate(310,31)"/>
<path d="M0 0 C3.82601307 1.45124634 5.22329124 3.35774704 7 7 C7 7.99 7 8.98 7 10 C6.01 9.67 5.02 9.34 4 9 C2.9375 6.6875 2.9375 6.6875 2 4 C1.34786461 2.65949948 0.68620031 1.32338632 0 0 Z " fill="#274899" transform="translate(280,1)"/>
<path d="M0 0 C0.99 0 1.98 0 3 0 C3.33 0.99 3.66 1.98 4 3 C6.97 3.495 6.97 3.495 10 4 C10 4.66 10 5.32 10 6 C6.29706315 6.33663062 4.60465619 6.47736015 1.625 4.125 C0 2 0 2 0 0 Z " fill="#29489A" transform="translate(335,71)"/>
<path d="M0 0 C3.93673644 1.31224548 6.22719294 2.91910327 9 6 C8.01 6.495 8.01 6.495 7 7 C5.82780457 6.21654285 4.66236332 5.42297164 3.5 4.625 C2.8503125 4.18414062 2.200625 3.74328125 1.53125 3.2890625 C1.0259375 2.86367187 0.520625 2.43828125 0 2 C0 1.34 0 0.68 0 0 Z " fill="#324F9E" transform="translate(292,70)"/>
<path d="M0 0 C3.3125 -0.25 3.3125 -0.25 7 0 C10.20646383 2.77893532 10.53450501 5.90364407 11 10 C10.34 10 9.68 10 9 10 C8 7 7 4 6 1 C4.02 1 2.04 1 0 1 C0 0.67 0 0.34 0 0 Z " fill="#6074B3" transform="translate(507,19)"/>
<path d="M0 0 C4.29 0 8.58 0 13 0 C10.01193893 1.49403054 7.10343799 2.79310745 4 4 C3.67 3.34 3.34 2.68 3 2 C2.01 1.34 1.02 0.68 0 0 Z " fill="#1A3B93" transform="translate(302,21)"/>
<path d="M0 0 C0 0.66 0 1.32 0 2 C-5.75 5 -5.75 5 -8 5 C-8 4.01 -8 3.02 -8 2 C-5.09399739 0.74335022 -3.20395416 0 0 0 Z " fill="#30509E" transform="translate(565,72)"/>
<path d="M0 0 C0.66 0 1.32 0 2 0 C0.90931332 3.77545388 0.0916909 6.47043472 -3 9 C-2.5020163 5.26512223 -2.12508244 3.18762365 0 0 Z " fill="#244598" transform="translate(342,10)"/>
<path d="M0 0 C1.66611905 -0.042721 3.33382885 -0.04063832 5 0 C6 1 6 1 6.09765625 2.84765625 C6.06510417 4.8984375 6.03255208 6.94921875 6 9 C5.67 9 5.34 9 5 9 C4.67 7.02 4.34 5.04 4 3 C2.68 2.67 1.36 2.34 0 2 C0 1.34 0 0.68 0 0 Z " fill="#193992" transform="translate(481,31)"/>
<path d="M0 0 C2.31 0 4.62 0 7 0 C7 0.66 7 1.32 7 2 C5.576875 2.185625 5.576875 2.185625 4.125 2.375 C0.91332809 2.71687177 0.91332809 2.71687177 -1 5 C-0.67 3.35 -0.34 1.7 0 0 Z " fill="#1C4395" transform="translate(428,27)"/>
<path d="M0 0 C0.66 0.66 1.32 1.32 2 2 C1.625 5.125 1.625 5.125 1 8 C0.01 8.33 -0.98 8.66 -2 9 C-1.34 6.03 -0.68 3.06 0 0 Z " fill="#3556A1" transform="translate(313,50)"/>
<path d="M0 0 C-2.93720508 1.52299523 -5.9168649 2.80100302 -9 4 C-9 3.01 -9 2.02 -9 1 C-5.64919071 -1.10976881 -3.77897651 -1.0497157 0 0 Z " fill="#32509E" transform="translate(274,15)"/>
<path d="M0 0 C0.66 0.33 1.32 0.66 2 1 C1.67 2.98 1.34 4.96 1 7 C-0.32 6.67 -1.64 6.34 -3 6 C-3 5.34 -3 4.68 -3 4 C-2.34 4 -1.68 4 -1 4 C-0.67 2.68 -0.34 1.36 0 0 Z " fill="#4168A9" transform="translate(445,41)"/>
<path d="M0 0 C0.33 0 0.66 0 1 0 C1.2226746 1.43534841 1.42761906 2.87345525 1.625 4.3125 C1.74101563 5.11300781 1.85703125 5.91351563 1.9765625 6.73828125 C2 9 2 9 0 12 C-1.53166168 7.91556885 -0.63081652 4.20544343 0 0 Z " fill="#27579E" transform="translate(568,32)"/>
</svg>
